<svg xmlns="http://www.w3.org/2000/svg" version="1.1" xmlns:xlink="http://www.w3.org/1999/xlink" xmlns:svgjs="http://svgjs.dev/svgjs" viewBox="0 0 800 800"><g transform="matrix(1,0,0,1,0,-26)"><path d="M253 199.6351776123047L320.0000042812568 238.3175917111335V315.6824199087911L253 354.36483400761995L185.9999957187432 315.6824199087911V238.3175917111335L253 199.6351776123047Z " stroke-width="0.5" stroke="#ff0000" fill="none" opacity="0.58" transform="rotate(-80, 400, 400)"></path><path d="M264.3076946551983 201.72440162071814L337.6923147290433 244.09296999073268V328.8301067307618L264.3076946551983 371.1986751007764L190.92307458135338 328.8301067307618V244.09296999073268L264.3076946551983 201.72440162071814Z " stroke-width="1.6923076923076923" stroke="#f72a47" fill="none" opacity="0.6123076923076922" transform="rotate(-73.84615384615384, 400, 400)"></path><path d="M275.61538931039667 203.8136256291316L355.3846251768298 249.86834827033192V341.9777935527326L275.61538931039667 388.0325161939329L195.84615344396354 341.9777935527326V249.86834827033192L275.61538931039667 203.8136256291316Z " stroke-width="2.8846153846153846" stroke="#ee3b64" fill="none" opacity="0.6446153846153846" transform="rotate(-67.6923076923077, 400, 400)"></path><path d="M286.9230687068059 205.9028648963341L373.0769203658272 255.64374180872016V355.1254956334923L286.9230687068059 404.8663725458784L200.76921704778454 355.1254956334923V255.64374180872016L286.9230687068059 205.9028648963341Z " stroke-width="4.076923076923077" stroke="#e5497a" fill="none" opacity="0.6769230769230768" transform="rotate(-61.53846153846153, 400, 400)"></path><path d="M298.2307633620042 207.99208890474762L390.7692308136138 261.41912008831946V368.2731824554631L298.2307633620042 421.7002136390349L205.6922959103947 368.2731824554631V261.41912008831946L298.2307633620042 207.99208890474762Z " stroke-width="5.269230769230769" stroke="#dc548d" fill="none" opacity="0.7092307692307692" transform="rotate(-55.38461538461539, 400, 400)"></path><path d="M309.5384580172025 210.08132817195013L408.46154126140027 267.1945136267077V381.4208845362229L309.5384580172025 438.53406999098047L210.61537477300482 381.4208845362229V267.1945136267077L309.5384580172025 210.08132817195013Z " stroke-width="6.461538461538462" stroke="#d35e9e" fill="none" opacity="0.7415384615384615" transform="rotate(-49.230769230769226, 400, 400)"></path><path d="M320.8461526724009 212.1705521803636L426.15385170918677 272.96989190630694V394.56857135819354L320.8461526724009 455.3679110841369L215.53845363561499 394.56857135819354V272.96989190630694L320.8461526724009 212.1705521803636Z " stroke-width="7.653846153846153" stroke="#c967ad" fill="none" opacity="0.7738461538461539" transform="rotate(-43.07692307692307, 400, 400)"></path><path d="M332.1538473275992 214.25977618877704L443.84616215697326 278.7452701859061V407.7162581801643L332.1538473275992 472.2017521772934L220.4615324982251 407.7162581801643V278.7452701859061L332.1538473275992 214.25977618877704Z " stroke-width="8.846153846153847" stroke="#be6fbb" fill="none" opacity="0.8061538461538461" transform="rotate(-36.92307692307692, 400, 400)"></path><path d="M343.4615419827975 216.34901545597955L461.5384726047597 284.52066372429437V420.8639602609241L343.4615419827975 489.0356085292389L225.3846113608352 420.8639602609241V284.52066372429437L343.4615419827975 216.34901545597955Z " stroke-width="10.038461538461538" stroke="#b376c8" fill="none" opacity="0.8384615384615384" transform="rotate(-30.769230769230766, 400, 400)"></path><path d="M354.7692213792067 218.43823946439306L479.23076779375725 290.29604200389366V434.01164708289485L354.7692213792067 505.86944962239545L230.30767496465626 434.01164708289485V290.29604200389366L354.7692213792067 218.43823946439306Z " stroke-width="11.23076923076923" stroke="#a77ed4" fill="none" opacity="0.8707692307692307" transform="rotate(-24.615384615384613, 400, 400)"></path><path d="M366.0769160344051 220.52746347280652L496.92307824154375 296.0714202834929V447.1593339048656L366.0769160344051 522.7032907155519L235.23075382726643 447.1593339048656V296.0714202834929L366.0769160344051 220.52746347280652Z " stroke-width="12.423076923076923" stroke="#9a84e0" fill="none" opacity="0.9030769230769231" transform="rotate(-18.46153846153846, 400, 400)"></path><path d="M377.38461068960333 222.61668748121997L514.6153886893302 301.8467985630921V460.3070207268363L377.38461068960333 539.5371318087084L240.15383268987648 460.3070207268363V301.8467985630921L377.38461068960333 222.61668748121997Z " stroke-width="13.615384615384615" stroke="#8c8beb" fill="none" opacity="0.9353846153846154" transform="rotate(-12.307692307692307, 400, 400)"></path><path d="M388.69230534480175 224.70594200721155L532.3076991371167 307.6222073602694V473.4547380663851L388.69230534480175 556.3710034194429L245.0769115524867 473.4547380663851V307.6222073602694L388.69230534480175 224.70594200721155Z " stroke-width="14.807692307692307" stroke="#7d91f5" fill="none" opacity="0.9676923076923076" transform="rotate(-6.153846153846146, 400, 400)"></path><path d="M400 226.795166015625L550.0000095849032 313.3975856398686V486.60242488835587L400 573.2048445125995L249.99999041509682 486.60242488835587V313.3975856398686L400 226.795166015625Z " stroke-width="16" stroke="#6b97ff" fill="none" opacity="1" transform="rotate(0, 400, 400)"></path></g></svg>