<?xml version="1.0" encoding="iso-8859-1"?>
<!-- Generator: Adobe Illustrator 19.0.0, SVG Export Plug-In . SVG Version: 6.00 Build 0)  -->
<svg version="1.1" id="Capa_1" xmlns="http://www.w3.org/2000/svg" xmlns:xlink="http://www.w3.org/1999/xlink" x="0px" y="0px"
	 viewBox="0 0 490.4 490.4" style="enable-background:new 0 0 490.4 490.4;" xml:space="preserve">
<g>
	<g>
		<g>
			<path d="M17.2,251.55c-9.5,0-17.2,7.7-17.2,17.1v179.7c0,9.5,7.7,17.2,17.2,17.2h113c9.5,0,17.1-7.7,17.1-17.2v-179.7
				c0-9.5-7.7-17.1-17.1-17.1L17.2,251.55L17.2,251.55z M113,431.25H34.3v-145.4H113V431.25z"/>
			<path d="M490.4,448.45v-283.7c0-9.5-7.7-17.2-17.2-17.2h-113c-9.5,0-17.2,7.7-17.2,17.2v283.6c0,9.5,7.7,17.2,17.2,17.2h113
				C482.7,465.55,490.4,457.85,490.4,448.45z M456.1,431.25h-78.7v-249.3h78.7L456.1,431.25L456.1,431.25z"/>
			<path d="M301.7,465.55c9.5,0,17.1-7.7,17.1-17.2V42.05c0-9.5-7.7-17.2-17.1-17.2h-113c-9.5,0-17.2,7.7-17.2,17.2v406.3
				c0,9.5,7.7,17.2,17.2,17.2H301.7z M205.9,59.25h78.7v372h-78.7L205.9,59.25L205.9,59.25z"/>
		</g>
	</g>
	<g>
	</g>
	<g>
	</g>
	<g>
	</g>
	<g>
	</g>
	<g>
	</g>
	<g>
	</g>
	<g>
	</g>
	<g>
	</g>
	<g>
	</g>
	<g>
	</g>
	<g>
	</g>
	<g>
	</g>
	<g>
	</g>
	<g>
	</g>
	<g>
	</g>
</g>
<g>
</g>
<g>
</g>
<g>
</g>
<g>
</g>
<g>
</g>
<g>
</g>
<g>
</g>
<g>
</g>
<g>
</g>
<g>
</g>
<g>
</g>
<g>
</g>
<g>
</g>
<g>
</g>
<g>
</g>
</svg>
