<?xml version="1.0" encoding="iso-8859-1"?>
<!-- Generator: Adobe Illustrator 19.0.0, SVG Export Plug-In . SVG Version: 6.00 Build 0)  -->
<svg version="1.1" id="Capa_1" xmlns="http://www.w3.org/2000/svg" xmlns:xlink="http://www.w3.org/1999/xlink" x="0px" y="0px"
	 viewBox="0 0 490.1 490.1" style="enable-background:new 0 0 490.1 490.1;" xml:space="preserve">
<g>
	<g>
		<g>
			<path d="M490.05,404.8V85.2c0-47-38.2-85.2-85.2-85.2c-9.5,0-17.2,7.7-17.2,17.1c0,9.5,7.7,17.2,17.2,17.2
				c28,0,50.9,22.8,50.9,50.9v319.7c0,28.1-22.8,50.9-50.9,50.9H85.25c-28.1,0-50.9-22.8-50.9-50.9V85.2c0-28.1,22.8-50.9,50.9-50.9
				h0.5c9.5,0,16.9-7.7,16.9-17.2S94.75,0,85.25,0c-47,0-85.2,38.2-85.2,85.2v319.7c0,47,38.2,85.2,85.2,85.2h319.7
				C451.85,490,490.05,451.8,490.05,404.8z"/>
			<path d="M165.95,397.4c6.9,0,13.6-2.6,18.9-7.3l59.4-53.5l59.4,53.5c5.2,4.7,11.9,7.3,18.9,7.3c15.6,0,28.3-12.7,28.3-28.3v-352
				c0-9.5-7.7-17.1-17.1-17.1h-179c-9.5,0-17.2,7.7-17.2,17.1v352C137.55,384.7,150.35,397.4,165.95,397.4z M171.85,34.3h144.5
				v321.3l-53.3-48.1c-5.2-4.7-11.9-7.3-18.9-7.3s-13.7,2.6-18.9,7.3l-53.3,48.1V34.3H171.85z"/>
		</g>
	</g>
	<g>
	</g>
	<g>
	</g>
	<g>
	</g>
	<g>
	</g>
	<g>
	</g>
	<g>
	</g>
	<g>
	</g>
	<g>
	</g>
	<g>
	</g>
	<g>
	</g>
	<g>
	</g>
	<g>
	</g>
	<g>
	</g>
	<g>
	</g>
	<g>
	</g>
</g>
<g>
</g>
<g>
</g>
<g>
</g>
<g>
</g>
<g>
</g>
<g>
</g>
<g>
</g>
<g>
</g>
<g>
</g>
<g>
</g>
<g>
</g>
<g>
</g>
<g>
</g>
<g>
</g>
<g>
</g>
</svg>
