<?xml version="1.0" encoding="iso-8859-1"?>
<!-- Generator: Adobe Illustrator 19.0.0, SVG Export Plug-In . SVG Version: 6.00 Build 0)  -->
<svg version="1.1" id="Capa_1" xmlns="http://www.w3.org/2000/svg" xmlns:xlink="http://www.w3.org/1999/xlink" x="0px" y="0px"
	 viewBox="0 0 490 490" style="enable-background:new 0 0 490 490;" xml:space="preserve">
<g>
	<g>
		<g>
			<path d="M207,182.8c-6.7-6.7-17.6-6.7-24.3,0s-6.7,17.6,0,24.3l38,38l-38,38c-6.7,6.7-6.7,17.6,0,24.3c3.3,3.3,7.7,5,12.1,5
				c4.4,0,8.8-1.7,12.1-5l38-38l38,38c3.3,3.3,7.7,5,12.1,5s8.8-1.7,12.1-5c6.7-6.7,6.7-17.6,0-24.3l-38-38l38-38
				c6.7-6.7,6.7-17.6,0-24.3s-17.6-6.7-24.3,0l-38,38L207,182.8z"/>
			<path d="M0,245c0,135.1,109.9,245,245,245s245-109.9,245-245S380.1,0,245,0S0,109.9,0,245z M455.7,245
				c0,116.2-94.5,210.7-210.7,210.7S34.3,361.2,34.3,245S128.8,34.3,245,34.3S455.7,128.8,455.7,245z"/>
		</g>
	</g>
	<g>
	</g>
	<g>
	</g>
	<g>
	</g>
	<g>
	</g>
	<g>
	</g>
	<g>
	</g>
	<g>
	</g>
	<g>
	</g>
	<g>
	</g>
	<g>
	</g>
	<g>
	</g>
	<g>
	</g>
	<g>
	</g>
	<g>
	</g>
	<g>
	</g>
</g>
<g>
</g>
<g>
</g>
<g>
</g>
<g>
</g>
<g>
</g>
<g>
</g>
<g>
</g>
<g>
</g>
<g>
</g>
<g>
</g>
<g>
</g>
<g>
</g>
<g>
</g>
<g>
</g>
<g>
</g>
</svg>
