<?xml version="1.0" encoding="iso-8859-1"?>
<!-- Generator: Adobe Illustrator 19.0.0, SVG Export Plug-In . SVG Version: 6.00 Build 0)  -->
<svg version="1.1" id="Capa_1" xmlns="http://www.w3.org/2000/svg" xmlns:xlink="http://www.w3.org/1999/xlink" x="0px" y="0px"
	 viewBox="0 0 490.1 490.1" style="enable-background:new 0 0 490.1 490.1;" xml:space="preserve">
<g>
	<g>
		<g>
			<path d="M445,21.4H45c-24.8,0-45,20.2-45,45.1v270.7c0,24.9,20.2,45.1,45.1,45.1h15v62c0,13.4,10.9,24.4,24.4,24.4
				c6.5,0,12.6-2.5,17.2-7.1l79.3-79.3h264c24.9,0,45.1-20.2,45.1-45.1V66.5C490,41.6,469.8,21.4,445,21.4z M455.7,337.1
				c0,5.9-4.8,10.8-10.8,10.8H173.8c-4.5,0-8.9,1.8-12.1,5l-67.3,67.3v-55.1c0-9.5-7.7-17.2-17.1-17.2H45c-5.9,0-10.8-4.8-10.8-10.8
				V66.5c0-5.9,4.8-10.8,10.8-10.8h400c5.9,0,10.8,4.8,10.8,10.8v270.6H455.7z"/>
			<path d="M391.9,116.9H98.1c-9.5,0-17.2,7.7-17.2,17.2s7.7,17.1,17.2,17.1H392c9.5,0,17.2-7.7,17.2-17.1
				C409.1,124.5,401.4,116.9,391.9,116.9z"/>
			<path d="M391.9,187.2H98.1c-9.5,0-17.2,7.7-17.2,17.1c0,9.5,7.7,17.2,17.2,17.2H392c9.5,0,17.2-7.7,17.2-17.2
				C409.1,194.9,401.4,187.2,391.9,187.2z"/>
			<path d="M391.9,257.6H98.1c-9.5,0-17.2,7.7-17.2,17.2s7.7,17.1,17.2,17.1H392c9.5,0,17.2-7.7,17.2-17.1
				C409.1,265.2,401.4,257.6,391.9,257.6z"/>
		</g>
	</g>
	<g>
	</g>
	<g>
	</g>
	<g>
	</g>
	<g>
	</g>
	<g>
	</g>
	<g>
	</g>
	<g>
	</g>
	<g>
	</g>
	<g>
	</g>
	<g>
	</g>
	<g>
	</g>
	<g>
	</g>
	<g>
	</g>
	<g>
	</g>
	<g>
	</g>
</g>
<g>
</g>
<g>
</g>
<g>
</g>
<g>
</g>
<g>
</g>
<g>
</g>
<g>
</g>
<g>
</g>
<g>
</g>
<g>
</g>
<g>
</g>
<g>
</g>
<g>
</g>
<g>
</g>
<g>
</g>
</svg>
