<?xml version="1.0" encoding="iso-8859-1"?>
<!-- Generator: Adobe Illustrator 19.0.0, SVG Export Plug-In . SVG Version: 6.00 Build 0)  -->
<svg version="1.1" id="Capa_1" xmlns="http://www.w3.org/2000/svg" xmlns:xlink="http://www.w3.org/1999/xlink" x="0px" y="0px"
	 viewBox="0 0 484.6 484.6" style="enable-background:new 0 0 484.6 484.6;" xml:space="preserve">
<g>
	<g>
		<g>
			<path d="M484.6,242.3C484.6,108.7,375.9,0,242.3,0S0,108.7,0,242.3s108.7,242.3,242.3,242.3S484.6,375.9,484.6,242.3z
				 M34.3,242.3c0-114.7,93.3-208,208-208s208,93.3,208,208s-93.3,208-208,208S34.3,357,34.3,242.3z"/>
			<path d="M319.4,184.6c-6.7-6.7-17.6-6.7-24.3,0L216,263.7l-26.5-26.5c-6.7-6.7-17.6-6.7-24.3,0s-6.7,17.6,0,24.3l38.6,38.6
				c3.3,3.3,7.7,5,12.1,5c4.4,0,8.8-1.7,12.1-5l91.2-91.2C326.1,202.1,326.1,191.3,319.4,184.6z"/>
		</g>
	</g>
	<g>
	</g>
	<g>
	</g>
	<g>
	</g>
	<g>
	</g>
	<g>
	</g>
	<g>
	</g>
	<g>
	</g>
	<g>
	</g>
	<g>
	</g>
	<g>
	</g>
	<g>
	</g>
	<g>
	</g>
	<g>
	</g>
	<g>
	</g>
	<g>
	</g>
</g>
<g>
</g>
<g>
</g>
<g>
</g>
<g>
</g>
<g>
</g>
<g>
</g>
<g>
</g>
<g>
</g>
<g>
</g>
<g>
</g>
<g>
</g>
<g>
</g>
<g>
</g>
<g>
</g>
<g>
</g>
</svg>
