<?xml version="1.0" encoding="iso-8859-1"?>
<!-- Generator: Adobe Illustrator 19.0.0, SVG Export Plug-In . SVG Version: 6.00 Build 0)  -->
<svg version="1.1" id="Capa_1" xmlns="http://www.w3.org/2000/svg" xmlns:xlink="http://www.w3.org/1999/xlink" x="0px" y="0px"
	 viewBox="0 0 489.7 489.7" style="enable-background:new 0 0 489.7 489.7;" xml:space="preserve">
<g>
	<g>
		<g>
			<path d="M398.3,47.238c-6.7-6.7-17.5-6.8-24.3-0.1l-186.8,185.8l-71.1-71.5c-3.2-3.2-7.6-5-12.1-5.1l0,0c-4.5,0-8.9,1.8-12.1,5
				l-86.8,86.4c-3.2,3.2-5,7.6-5.1,12.1c0,4.6,1.8,8.9,5,12.1l169.6,170.5c3.2,3.2,7.6,5,12.1,5.1l0,0c4.5,0,8.9-1.8,12.1-5
				l285.8-284.2c3.2-3.2,5-7.6,5.1-12.1c0-4.6-1.8-8.9-5-12.1L398.3,47.238z M186.8,406.038l-145.4-146.1l62.5-62.2l71.1,71.5
				c3.2,3.2,7.6,5,12.1,5.1c4.5,0.2,8.9-1.8,12.1-5l186.9-185.8l62.2,62.5L186.8,406.038z"/>
		</g>
	</g>
	<g>
	</g>
	<g>
	</g>
	<g>
	</g>
	<g>
	</g>
	<g>
	</g>
	<g>
	</g>
	<g>
	</g>
	<g>
	</g>
	<g>
	</g>
	<g>
	</g>
	<g>
	</g>
	<g>
	</g>
	<g>
	</g>
	<g>
	</g>
	<g>
	</g>
</g>
<g>
</g>
<g>
</g>
<g>
</g>
<g>
</g>
<g>
</g>
<g>
</g>
<g>
</g>
<g>
</g>
<g>
</g>
<g>
</g>
<g>
</g>
<g>
</g>
<g>
</g>
<g>
</g>
<g>
</g>
</svg>
