<?xml version="1.0" encoding="iso-8859-1"?>
<!-- Generator: Adobe Illustrator 19.0.0, SVG Export Plug-In . SVG Version: 6.00 Build 0)  -->
<svg version="1.1" id="Capa_1" xmlns="http://www.w3.org/2000/svg" xmlns:xlink="http://www.w3.org/1999/xlink" x="0px" y="0px"
	 viewBox="0 0 489.8 489.8" style="enable-background:new 0 0 489.8 489.8;" xml:space="preserve">
<g>
	<g>
		<g>
			<path d="M29.103,280c-5.4,6-6,14.9-1.3,21.5c5.4,7.6,134.5,187.2,284.2,188.3h1.7l0,0c48.6,0,86.4-16.1,112.5-47.8
				c57.6-70.1,34.6-190.9,33.6-196c-0.9-4.8-3.9-8.9-8-11.4c-79-47.1-125.4-56.9-159.4-64c-3.6-0.7-7-1.5-10.4-2.2l-14.2-117.5
				c-0.6-28.2-23.7-50.9-52-50.9s-51.2,22.2-52,51v70.5l-1.1,165.7l-13.5-10.4c-4.1-3.5-29.9-24.1-62.1-24.1
				C65.503,252.7,45.403,262.1,29.103,280z M127.903,303.7l39.8,30.6c3.1,2.4,7,3.7,11,3.7c9.9,0,18-8.1,18.1-18l1.4-198.5V51.4
				c0.3-9.6,8-17.2,17.7-17.2c9.8,0,17.7,7.9,17.7,17.7c0,0.7,0,1.4,0.1,2l15.7,130.2c0.8,7,5.8,12.7,12.6,14.5
				c7.5,2,15.2,3.6,23.4,5.3c32.3,6.8,72.2,15.2,142,55.9c3.7,25.5,12.6,111.3-27.7,160.2c-19.5,23.8-47.7,35.3-86,35.3l0,0h-1.4
				c-111.2-0.8-216.1-122.2-247.2-161.6c6.9-4.6,14.2-6.8,22.1-6.8c21.2,0,39.8,15.9,39.9,16
				C127.303,303.3,127.603,303.5,127.903,303.7z"/>
		</g>
	</g>
	<g>
	</g>
	<g>
	</g>
	<g>
	</g>
	<g>
	</g>
	<g>
	</g>
	<g>
	</g>
	<g>
	</g>
	<g>
	</g>
	<g>
	</g>
	<g>
	</g>
	<g>
	</g>
	<g>
	</g>
	<g>
	</g>
	<g>
	</g>
	<g>
	</g>
</g>
<g>
</g>
<g>
</g>
<g>
</g>
<g>
</g>
<g>
</g>
<g>
</g>
<g>
</g>
<g>
</g>
<g>
</g>
<g>
</g>
<g>
</g>
<g>
</g>
<g>
</g>
<g>
</g>
<g>
</g>
</svg>
