<?xml version="1.0" encoding="iso-8859-1"?>
<!-- Generator: Adobe Illustrator 19.0.0, SVG Export Plug-In . SVG Version: 6.00 Build 0)  -->
<svg version="1.1" id="Capa_1" xmlns="http://www.w3.org/2000/svg" xmlns:xlink="http://www.w3.org/1999/xlink" x="0px" y="0px"
	 viewBox="0 0 490 490" style="enable-background:new 0 0 490 490;" xml:space="preserve">
<g>
	<g>
		<g>
			<path d="M490,245c0-0.7-0.1-1.4-0.1-2.1c-0.5-62-24.4-123.9-71.6-171.2C372,25.5,310.5,0,245.1,0c0,0,0,0-0.1,0c0,0,0,0-0.1,0
				C179.5,0,118,25.5,71.8,71.8C24.5,119,0.7,180.9,0.1,242.9C0,243.6,0,244.3,0,245s0.1,1.4,0.1,2.1c0.5,62,24.4,123.9,71.6,171.2
				C118,464.5,179.6,490,245,490l0,0l0,0l0,0c65.4,0,127-25.5,173.2-71.8c47.2-47.2,71.1-109.1,71.6-171.2
				C489.9,246.4,490,245.7,490,245z M437.5,262.2h17.4c-3.5,42.8-19.9,84.6-49.3,119.2L393.2,369c-6.7-6.7-17.6-6.7-24.3,0
				c-6.7,6.7-6.7,17.6,0,24.3l12.4,12.4c-33.7,28.7-75.1,45.9-119.2,49.4v-17.5c0-9.5-7.7-17.1-17.1-17.1c-9.5,0-17.2,7.7-17.2,17.1
				V455c-44.1-3.5-85.5-20.7-119.2-49.4l12.4-12.4c6.7-6.7,6.7-17.6,0-24.3c-6.7-6.7-17.6-6.7-24.3,0l-12.4,12.4
				C55,346.8,38.6,304.9,35.1,262.2h17.4c9.5,0,17.2-7.7,17.2-17.1c0-9.5-7.7-17.2-17.2-17.2H35.1c3.5-42.8,19.9-84.6,49.3-119.2
				l12.4,12.4c3.3,3.3,7.7,5,12.1,5s8.8-1.7,12.1-5c6.7-6.7,6.7-17.6,0-24.3l-12.4-12.4c33.7-28.7,75.1-45.8,119.2-49.4v17.5
				c0,9.5,7.7,17.2,17.2,17.2s17.1-7.7,17.1-17.2V35c44.1,3.5,85.5,20.7,119.2,49.4L369,96.8c-6.7,6.7-6.7,17.6,0,24.3
				c3.3,3.3,7.7,5,12.1,5s8.8-1.7,12.1-5l12.4-12.4c29.4,34.6,45.8,76.5,49.3,119.2h-17.4c-9.5,0-17.1,7.7-17.1,17.2
				C420.3,254.5,428,262.2,437.5,262.2z"/>
			<path d="M296.1,202.7c-1.7-3.9-4.9-7.1-8.8-8.8l-126.2-55.4c-6.5-2.8-14-1.4-19,3.6s-6.4,12.5-3.6,19l55.4,126.2
				c1.7,3.9,4.9,7.1,8.8,8.8l126.2,55.4c2.2,1,4.6,1.4,6.9,1.4h0.1c9.5,0,17.1-7.7,17.1-17.1c0-3.1-0.8-6-2.2-8.5L296.1,202.7z
				 M222.6,267.4l-35-79.8l79.8,35l35,79.8L222.6,267.4z"/>
		</g>
	</g>
	<g>
	</g>
	<g>
	</g>
	<g>
	</g>
	<g>
	</g>
	<g>
	</g>
	<g>
	</g>
	<g>
	</g>
	<g>
	</g>
	<g>
	</g>
	<g>
	</g>
	<g>
	</g>
	<g>
	</g>
	<g>
	</g>
	<g>
	</g>
	<g>
	</g>
</g>
<g>
</g>
<g>
</g>
<g>
</g>
<g>
</g>
<g>
</g>
<g>
</g>
<g>
</g>
<g>
</g>
<g>
</g>
<g>
</g>
<g>
</g>
<g>
</g>
<g>
</g>
<g>
</g>
<g>
</g>
</svg>
