<?xml version="1.0" encoding="iso-8859-1"?>
<!-- Generator: Adobe Illustrator 19.0.0, SVG Export Plug-In . SVG Version: 6.00 Build 0)  -->
<svg version="1.1" id="Capa_1" xmlns="http://www.w3.org/2000/svg" xmlns:xlink="http://www.w3.org/1999/xlink" x="0px" y="0px"
	 viewBox="0 0 490 490" style="enable-background:new 0 0 490 490;" xml:space="preserve">
<g>
	<g>
		<g>
			<path d="M176.7,165L95.2,268c-8.4-3.7-17.6-5.8-27.3-5.8C30.5,262.2,0,292.7,0,330.1S30.5,398,67.9,398s67.9-30.5,67.9-67.9
				c0-15.3-5.1-29.5-13.7-40.9l81.5-103c7.5,3.9,15.7,6.8,24.2,8.4v145.5c-29.2,7.6-50.8,34.2-50.8,65.7c0,37.5,30.5,67.9,67.9,67.9
				s67.9-30.5,67.9-67.9c0-31.5-21.6-58.1-50.8-65.7V194.7c8.3-1.6,16.1-4.3,23.4-8L367,290.2c-8.2,11.2-13.1,25-13.1,40
				c0,37.4,30.5,67.9,67.9,67.9s68.2-30.5,68.2-68c0-37.4-30.5-67.9-67.9-67.9c-10.1,0-19.7,2.2-28.3,6.2l-81.1-102.8
				c13.9-15.9,22.4-36.6,22.4-59.3c0-49.6-40.4-90-90-90s-90,40.4-90,90C155,128.7,163.2,149.2,176.7,165z M67.9,363.8
				c-18.5,0-33.6-15.1-33.6-33.6s15.1-33.6,33.6-33.6s33.6,15.1,33.6,33.6S86.5,363.8,67.9,363.8z M278.6,406
				c0,18.5-15.1,33.6-33.6,33.6s-33.6-15.1-33.6-33.6c0-18.3,14.7-33.2,33-33.6c0.2,0,0.4,0,0.7,0c0.2,0,0.4,0,0.7,0
				C263.9,372.7,278.6,387.7,278.6,406z M455.7,330.1c0,18.5-15.1,33.6-33.6,33.6s-33.6-15.1-33.6-33.6s15.1-33.6,33.6-33.6
				S455.7,311.6,455.7,330.1z M245,50.6c30.7,0,55.7,25,55.7,55.7S275.7,162,245,162s-55.7-25-55.7-55.7S214.3,50.6,245,50.6z"/>
		</g>
	</g>
	<g>
	</g>
	<g>
	</g>
	<g>
	</g>
	<g>
	</g>
	<g>
	</g>
	<g>
	</g>
	<g>
	</g>
	<g>
	</g>
	<g>
	</g>
	<g>
	</g>
	<g>
	</g>
	<g>
	</g>
	<g>
	</g>
	<g>
	</g>
	<g>
	</g>
</g>
<g>
</g>
<g>
</g>
<g>
</g>
<g>
</g>
<g>
</g>
<g>
</g>
<g>
</g>
<g>
</g>
<g>
</g>
<g>
</g>
<g>
</g>
<g>
</g>
<g>
</g>
<g>
</g>
<g>
</g>
</svg>
