<?xml version="1.0" encoding="iso-8859-1"?>
<!-- Generator: Adobe Illustrator 19.0.0, SVG Export Plug-In . SVG Version: 6.00 Build 0)  -->
<svg version="1.1" id="Capa_1" xmlns="http://www.w3.org/2000/svg" xmlns:xlink="http://www.w3.org/1999/xlink" x="0px" y="0px"
	 viewBox="0 0 489.289 489.289" style="enable-background:new 0 0 489.289 489.289;" xml:space="preserve">
<g>
	<g>
		<g>
			<path d="M459.496,132.289c0-0.4,0-0.7-0.1-1.1c0-0.1,0-0.3,0-0.4c-0.1-0.5-0.1-0.9-0.2-1.4c0-0.2-0.1-0.3-0.1-0.5
				c-0.1-0.4-0.2-0.7-0.3-1.1c0-0.1-0.1-0.2-0.1-0.3c-0.2-0.5-0.3-0.9-0.5-1.4c0-0.1-0.1-0.2-0.1-0.3c-0.4-1-0.9-1.9-1.5-2.7
				c-0.1-0.1-0.1-0.2-0.2-0.3c-0.3-0.4-0.6-0.8-0.9-1.2c-0.1-0.1-0.2-0.2-0.2-0.3c-0.2-0.3-0.5-0.5-0.8-0.8
				c-0.1-0.1-0.3-0.2-0.4-0.4c-0.3-0.3-0.7-0.6-1-0.9c-0.1-0.1-0.2-0.2-0.4-0.3c-0.3-0.2-0.5-0.4-0.8-0.6c-0.1-0.1-0.3-0.2-0.4-0.3
				c-0.1,0-0.1-0.1-0.2-0.1l-195.1-115.5c-5.3-3.1-11.8-3.2-17.2-0.2l-197.6,110.9c-0.1,0-0.1,0.1-0.2,0.1c-0.1,0.1-0.3,0.2-0.4,0.3
				c-0.3,0.2-0.6,0.4-0.9,0.6c-0.1,0.1-0.3,0.2-0.4,0.3c-0.4,0.3-0.7,0.6-1,0.8c-0.1,0.1-0.3,0.2-0.4,0.4c-0.3,0.2-0.5,0.5-0.8,0.8
				c-0.1,0.1-0.2,0.2-0.3,0.3c-0.3,0.4-0.6,0.7-0.9,1.1c-0.1,0.1-0.2,0.2-0.2,0.3c-0.3,0.4-0.6,0.8-0.8,1.3l0,0c0,0,0,0.1-0.1,0.1
				c-0.2,0.3-0.3,0.6-0.5,0.9c-0.1,0.2-0.1,0.3-0.2,0.5c-0.1,0.2-0.2,0.4-0.3,0.5c-0.1,0.2-0.2,0.4-0.3,0.6
				c-0.1,0.1-0.1,0.3-0.2,0.4c-0.1,0.2-0.2,0.5-0.2,0.7c0,0.1-0.1,0.2-0.1,0.3c-0.1,0.3-0.1,0.5-0.2,0.8c0,0.1,0,0.2-0.1,0.3
				c-0.1,0.3-0.1,0.6-0.2,0.9c0,0.1,0,0.2,0,0.2c0,0.3-0.1,0.6-0.1,0.9c0,0.1,0,0.1,0,0.2c0,0.3,0,0.6,0,1v0.1v0.1v0.1
				c0,0,0,0,0,0.1l-2.8,226.4c-0.1,6.1,3.1,11.8,8.3,14.9l196,117.5c2.7,1.6,5.8,2.4,8.8,2.4c2.9,0,5.8-0.7,8.4-2.2l197.7-110.9
				c5.4-3,8.7-8.7,8.8-14.8l1.7-228.4c0-0.1,0-0.1,0-0.2C459.496,132.589,459.496,132.489,459.496,132.289z M247.196,36.889
				l160.9,95.5l-163.1,91.6l-160.9-95.5L247.196,36.889z M66.596,157.989l161,95.6v189.4l-163.3-97.9L66.596,157.989z
				 M261.796,441.989v-188.1l163.2-91.6l-1.4,188.9L261.796,441.989z"/>
		</g>
	</g>
	<g>
	</g>
	<g>
	</g>
	<g>
	</g>
	<g>
	</g>
	<g>
	</g>
	<g>
	</g>
	<g>
	</g>
	<g>
	</g>
	<g>
	</g>
	<g>
	</g>
	<g>
	</g>
	<g>
	</g>
	<g>
	</g>
	<g>
	</g>
	<g>
	</g>
</g>
<g>
</g>
<g>
</g>
<g>
</g>
<g>
</g>
<g>
</g>
<g>
</g>
<g>
</g>
<g>
</g>
<g>
</g>
<g>
</g>
<g>
</g>
<g>
</g>
<g>
</g>
<g>
</g>
<g>
</g>
</svg>
