<?xml version="1.0" encoding="utf-8"?>
<!-- Generator: Adobe Illustrator 21.0.1, SVG Export Plug-In . SVG Version: 6.00 Build 0)  -->
<svg version="1.1" id="Layer_1" xmlns="http://www.w3.org/2000/svg" xmlns:xlink="http://www.w3.org/1999/xlink" x="0px" y="0px"
	 viewBox="0 0 80 80" style="enable-background:new 0 0 80 80;" xml:space="preserve">
<style type="text/css">
	.st0{fill:#39314C;}
	.st1{fill:#FFFFFF;}
	.st2{fill:none;stroke:#48E584;stroke-width:2;stroke-linejoin:round;stroke-miterlimit:10;}
	.st3{fill:none;stroke:#39314C;stroke-width:2;stroke-linejoin:round;stroke-miterlimit:10;}
	.st4{fill:#48E584;}
	.st5{fill:none;stroke:#39314C;stroke-width:2;stroke-miterlimit:10;}
	.st6{fill:none;stroke:#48E584;stroke-width:2;stroke-linecap:round;stroke-miterlimit:10;}
	.st7{fill:none;stroke:#39314C;stroke-width:2;stroke-linecap:round;stroke-miterlimit:10;}
	.st8{clip-path:url(#SVGID_2_);}
	.st9{clip-path:url(#SVGID_4_);fill:#39314C;}
	.st10{clip-path:url(#SVGID_6_);}
	.st11{clip-path:url(#SVGID_8_);fill:#39314C;}
	.st12{fill:none;stroke:#39314C;stroke-width:1.9425;stroke-miterlimit:10;}
	.st13{fill-rule:evenodd;clip-rule:evenodd;fill:#39314C;}
	.st14{fill-rule:evenodd;clip-rule:evenodd;fill:none;stroke:#39314C;stroke-width:2;stroke-miterlimit:10;}
	.st15{fill-rule:evenodd;clip-rule:evenodd;fill:#39314C;stroke:#39314C;stroke-width:1.6222;stroke-miterlimit:10;}
	.st16{clip-path:url(#SVGID_10_);}
	.st17{clip-path:url(#SVGID_12_);}
	.st18{fill:#FFFFFF;stroke:#39314C;stroke-width:2;stroke-linejoin:round;stroke-miterlimit:10;}
	.st19{clip-path:url(#SVGID_14_);}
	.st20{clip-path:url(#SVGID_16_);fill:#48E584;}
	.st21{fill:#39314C;stroke:#39314C;stroke-width:2;stroke-miterlimit:10;}
	.st22{fill:#48E584;stroke:#48E584;stroke-linecap:round;stroke-miterlimit:10;}
	.st23{fill:#39314C;stroke:#39314C;stroke-miterlimit:10;}
	.st24{fill:#48E584;stroke:#48E584;stroke-width:2;stroke-linecap:round;stroke-miterlimit:10;}
	.st25{fill:#FFFFFF;stroke:#48E584;stroke-width:2;stroke-linecap:round;stroke-linejoin:round;stroke-miterlimit:10;}
	.st26{fill:#FFFFFF;stroke:#39314C;stroke-width:2;stroke-miterlimit:10;}
	.st27{fill:#FFFFFF;stroke:#39314C;stroke-width:2;stroke-linecap:round;stroke-miterlimit:10;}
	.st28{fill:#48E584;stroke:#39314C;stroke-width:2;stroke-miterlimit:10;}
	.st29{fill:none;stroke:#39314C;stroke-width:3;stroke-miterlimit:10;}
	.st30{fill:none;stroke:#39314C;stroke-width:3;stroke-linejoin:round;stroke-miterlimit:10;}
</style>
<g>
	<defs>
		<path id="SVGID_1_" d="M533.5-359.4c-0.9,0-1.5,0.7-1.5,1.5v20.5c0,0.9,0.7,1.5,1.5,1.5s1.5-0.7,1.5-1.5v-20.5
			C535-358.7,534.4-359.4,533.5-359.4z"/>
	</defs>
	<clipPath id="SVGID_2_">
		<use xlink:href="#SVGID_1_"  style="overflow:visible;"/>
	</clipPath>
	<g class="st8">
		<defs>
			<rect id="SVGID_3_" x="-188.3" y="-1099" width="1366" height="1696"/>
		</defs>
		<clipPath id="SVGID_4_">
			<use xlink:href="#SVGID_3_"  style="overflow:visible;"/>
		</clipPath>
	</g>
</g>
<g>
	<defs>
		<path id="SVGID_5_" d="M533.5-333.1c-0.9,0-1.5,0.7-1.5,1.5v8.2c0,0.9,0.7,1.5,1.5,1.5s1.5-0.7,1.5-1.5v-8.2
			C535-332.4,534.4-333.1,533.5-333.1z"/>
	</defs>
	<clipPath id="SVGID_6_">
		<use xlink:href="#SVGID_5_"  style="overflow:visible;"/>
	</clipPath>
	<g class="st10">
		<defs>
			<rect id="SVGID_7_" x="-188.3" y="-1099" width="1366" height="1696"/>
		</defs>
		<clipPath id="SVGID_8_">
			<use xlink:href="#SVGID_7_"  style="overflow:visible;"/>
		</clipPath>
	</g>
</g>
<path class="st0" d="M73.3,17.9c-0.6-0.9-1.2-1.7-1.8-2.5C64.2,6,52.8,0,40,0l0,0C27.2,0,15.8,6,8.5,15.3c-0.6,0.8-1.3,1.7-1.8,2.5
	C2.5,24.2,0,31.8,0,40l0,0c0,8.2,2.5,15.8,6.7,22.1c0.6,0.9,1.2,1.7,1.8,2.5C15.8,74,27.2,80,40,80v-0.1l0,0V80
	c12.8,0,24.2-6,31.5-15.3c0.6-0.8,1.3-1.7,1.8-2.5C77.5,55.8,80,48.2,80,40v0C80,31.8,77.5,24.2,73.3,17.9z M30.5,4.6
	c-3.6,3.8-6.6,9.7-8.4,16.8c-4.2-1-7.8-2.5-10.8-4.2C16.1,11.1,22.8,6.7,30.5,4.6z M9.4,19.8c3.3,2,7.3,3.6,11.9,4.8
	c-0.9,4.3-1.3,8.9-1.3,13.7H3.4C3.7,31.5,5.9,25.1,9.4,19.8z M3.4,41.6H20l0,0l0,0c0,0,0,0,0,0v0.2h0c0,4.8,0.5,9.4,1.3,13.7
	c-4.6,1.2-8.6,2.8-11.9,4.8C5.8,54.8,3.7,48.5,3.4,41.6z M11.3,62.8c3-1.7,6.6-3.2,10.8-4.2c1.9,7.2,4.9,13.1,8.6,16.9
	C22.9,73.4,16.1,68.9,11.3,62.8z M38.3,76.4c-5.7-1.2-10.5-8.4-13.1-18.5c4-0.8,8.4-1.2,13.1-1.2V76.4z M38.3,53.3
	c-4.9,0-9.5,0.5-13.8,1.3c-0.8-4-1.2-8.5-1.2-13.1l0,0h15V53.3z M38.3,38.3h-15c0-4.6,0.4-9,1.2-13c4.3,0.9,8.9,1.3,13.8,1.4V38.3z
	 M38.3,23.3c-4.6,0-9-0.4-13.1-1.2c2.5-10.2,7.4-17.4,13.1-18.6V23.3z M76.6,38.3H60c0-4.8-0.5-9.5-1.3-13.7
	c4.6-1.2,8.6-2.8,11.9-4.8C74.1,25.1,76.3,31.5,76.6,38.3z M68.7,17.2c-2.9,1.7-6.6,3.2-10.8,4.2c-1.8-7.1-4.8-13-8.4-16.8
	C57.2,6.7,63.9,11.1,68.7,17.2z M41.6,3.5c5.8,1.1,10.6,8.4,13.2,18.6c-4.1,0.8-8.5,1.2-13.2,1.2C41.6,23.3,41.6,3.5,41.6,3.5z
	 M41.6,26.7c4.9,0,9.6-0.5,13.9-1.4c0.8,4,1.2,8.4,1.2,13H41.6V26.7z M41.6,41.6h15.1l0,0c0,4.6-0.4,9.1-1.2,13.1
	c-4.3-0.9-9-1.4-13.9-1.4V41.6z M41.6,76.4V56.7c4.7,0,9.1,0.4,13.2,1.2C52.2,68.1,47.3,75.3,41.6,76.4z M49.3,75.5
	c3.7-3.7,6.7-9.7,8.6-16.9c4.2,1.1,7.8,2.5,10.8,4.2C63.9,68.9,57.1,73.4,49.3,75.5z M70.6,60.3c-3.3-2-7.4-3.6-11.9-4.8
	c0.9-4.2,1.3-8.8,1.4-13.7h0v-0.2c0,0,0,0,0,0l0,0l0,0h16.6C76.3,48.5,74.1,54.9,70.6,60.3z"/>
</svg>
