<?xml version="1.0" encoding="iso-8859-1"?>
<!-- Generator: Adobe Illustrator 19.0.0, SVG Export Plug-In . SVG Version: 6.00 Build 0)  -->
<svg version="1.1" id="Capa_1" xmlns="http://www.w3.org/2000/svg" xmlns:xlink="http://www.w3.org/1999/xlink" x="0px" y="0px"
	 viewBox="0 0 490 490" style="enable-background:new 0 0 490 490;" xml:space="preserve">
<g>
	<g>
		<g>
			<path d="M462.3,78.05c-5.5-43.5-37-69.5-84.4-69.5H173.5c-22.1,0-41.9,10-55.1,25.8c-9.2-8.3-21.4-13.3-34.7-13.3H52.2
				C23.4,21.05,0,44.45,0,73.15v179.6c0,28.8,23.4,52.2,52.2,52.2h31.5c13.9,0,26.5-5.5,35.8-14.3l8.3,2.6c0.2,0,0.3,0.1,0.5,0.1
				c3.1,0.9,75.8,22.3,75.8,84.1v83.5c0,7.5,4.9,14.1,12,16.4c0.9,0.3,13.4,4.1,29.5,4.1c14,0,30.7-2.9,45-13.4
				c19.5-14.4,29.5-38.5,29.5-71.6v-69.2H421c38.1,0,69-31,69-69c0-4.1-0.3-8.2-1-12.1L462.3,78.05z M83.7,270.75H52.2
				c-9.9,0-17.9-8-17.9-17.9V73.15c0-9.9,8-17.9,17.9-17.9h31.5c9.9,0,17.9,8,17.9,17.9v179.6C101.6,262.65,93.6,270.75,83.7,270.75
				z M421,293.05H302.9c-9.5,0-17.2,7.7-17.2,17.1v86.4c0,21.6-5.2,36.4-15.4,43.9c-9.1,6.8-22.1,7.5-32,6.5v-69.4
				c0-86.4-93.2-115-100.5-117.1l-2.5-0.8c0.3-2.3,0.5-4.6,0.5-6.9V80.45c0-20.7,16.9-37.6,37.6-37.6h204.4
				c45.5,0,49.2,29.9,50.4,39.7c0,0.2,0.1,0.4,0.1,0.6l25.4,159.7l1.4,8.6c0.4,2.2,0.5,4.5,0.5,6.8
				C455.7,277.45,440.1,293.05,421,293.05z"/>
		</g>
	</g>
	<g>
	</g>
	<g>
	</g>
	<g>
	</g>
	<g>
	</g>
	<g>
	</g>
	<g>
	</g>
	<g>
	</g>
	<g>
	</g>
	<g>
	</g>
	<g>
	</g>
	<g>
	</g>
	<g>
	</g>
	<g>
	</g>
	<g>
	</g>
	<g>
	</g>
</g>
<g>
</g>
<g>
</g>
<g>
</g>
<g>
</g>
<g>
</g>
<g>
</g>
<g>
</g>
<g>
</g>
<g>
</g>
<g>
</g>
<g>
</g>
<g>
</g>
<g>
</g>
<g>
</g>
<g>
</g>
</svg>
