<?xml version="1.0" encoding="iso-8859-1"?>
<!-- Generator: Adobe Illustrator 19.0.0, SVG Export Plug-In . SVG Version: 6.00 Build 0)  -->
<svg version="1.1" id="Capa_1" xmlns="http://www.w3.org/2000/svg" xmlns:xlink="http://www.w3.org/1999/xlink" x="0px" y="0px"
	 viewBox="0 0 489.701 489.701" style="enable-background:new 0 0 489.701 489.701;" xml:space="preserve">
<g>
	<g>
		<g>
			<path d="M244.9,0c-9.5,0-17.1,7.7-17.1,17.2v312.3l-77.6-77.6c-6.7-6.7-17.6-6.7-24.3,0c-6.7,6.7-6.7,17.6,0,24.3l106.9,106.9
				c3.2,3.2,7.6,5,12.1,5c4.6,0,8.9-1.8,12.1-5l106.9-107c6.7-6.7,6.7-17.6,0-24.3s-17.6-6.7-24.3,0L262,329.4V17.2
				C262.1,7.7,254.4,0,244.9,0z"/>
			<path d="M455.8,472.6c0-9.5-7.7-17.2-17.2-17.2H51.1c-9.5,0-17.2,7.7-17.2,17.2s7.7,17.1,17.2,17.1h387.6
				C448.201,489.8,455.8,482.1,455.8,472.6z"/>
		</g>
	</g>
	<g>
	</g>
	<g>
	</g>
	<g>
	</g>
	<g>
	</g>
	<g>
	</g>
	<g>
	</g>
	<g>
	</g>
	<g>
	</g>
	<g>
	</g>
	<g>
	</g>
	<g>
	</g>
	<g>
	</g>
	<g>
	</g>
	<g>
	</g>
	<g>
	</g>
</g>
<g>
</g>
<g>
</g>
<g>
</g>
<g>
</g>
<g>
</g>
<g>
</g>
<g>
</g>
<g>
</g>
<g>
</g>
<g>
</g>
<g>
</g>
<g>
</g>
<g>
</g>
<g>
</g>
<g>
</g>
</svg>
