<?xml version="1.0" encoding="iso-8859-1"?>
<!-- Generator: Adobe Illustrator 19.0.0, SVG Export Plug-In . SVG Version: 6.00 Build 0)  -->
<svg version="1.1" id="Capa_1" xmlns="http://www.w3.org/2000/svg" xmlns:xlink="http://www.w3.org/1999/xlink" x="0px" y="0px"
	 viewBox="0 0 490 490" style="enable-background:new 0 0 490 490;" xml:space="preserve">
<g>
	<g>
		<g>
			<path d="M245,0c-9.5,0-17.2,7.7-17.2,17.2v331.2L169,289.6c-6.7-6.7-17.6-6.7-24.3,0s-6.7,17.6,0,24.3l88.1,88.1
				c3.3,3.3,7.7,5,12.1,5c4.4,0,8.8-1.7,12.1-5l88.1-88.1c6.7-6.7,6.7-17.6,0-24.3c-6.7-6.7-17.6-6.7-24.3,0L262,348.4V17.1
				C262.1,7.6,254.5,0,245,0z"/>
			<path d="M462.1,472.9v-99.7c0-9.5-7.7-17.2-17.2-17.2s-17.2,7.7-17.2,17.2v82.6H62.2v-82.6c0-9.5-7.7-17.2-17.1-17.2
				s-17.2,7.7-17.2,17.2v99.7c0,9.5,7.7,17.1,17.2,17.1h399.8C454.4,490,462.1,482.4,462.1,472.9z"/>
		</g>
	</g>
	<g>
	</g>
	<g>
	</g>
	<g>
	</g>
	<g>
	</g>
	<g>
	</g>
	<g>
	</g>
	<g>
	</g>
	<g>
	</g>
	<g>
	</g>
	<g>
	</g>
	<g>
	</g>
	<g>
	</g>
	<g>
	</g>
	<g>
	</g>
	<g>
	</g>
</g>
<g>
</g>
<g>
</g>
<g>
</g>
<g>
</g>
<g>
</g>
<g>
</g>
<g>
</g>
<g>
</g>
<g>
</g>
<g>
</g>
<g>
</g>
<g>
</g>
<g>
</g>
<g>
</g>
<g>
</g>
</svg>
