<?xml version="1.0" encoding="utf-8"?>
<!-- Generator: Adobe Illustrator 21.0.1, SVG Export Plug-In . SVG Version: 6.00 Build 0)  -->
<svg version="1.1" id="Layer_1" xmlns="http://www.w3.org/2000/svg" xmlns:xlink="http://www.w3.org/1999/xlink" x="0px" y="0px"
	 viewBox="0 0 80 80" style="enable-background:new 0 0 80 80;" xml:space="preserve">
<style type="text/css">
	.st0{fill:#39314C;}
	.st1{fill:#FFFFFF;}
	.st2{fill:none;stroke:#48E584;stroke-width:2;stroke-linejoin:round;stroke-miterlimit:10;}
	.st3{fill:none;stroke:#39314C;stroke-width:2;stroke-linejoin:round;stroke-miterlimit:10;}
	.st4{fill:#48E584;}
	.st5{fill:none;stroke:#39314C;stroke-width:2;stroke-miterlimit:10;}
	.st6{fill:none;stroke:#48E584;stroke-width:2;stroke-linecap:round;stroke-miterlimit:10;}
	.st7{fill:none;stroke:#39314C;stroke-width:2;stroke-linecap:round;stroke-miterlimit:10;}
	.st8{clip-path:url(#SVGID_2_);}
	.st9{clip-path:url(#SVGID_4_);fill:#39314C;}
	.st10{clip-path:url(#SVGID_6_);}
	.st11{clip-path:url(#SVGID_8_);fill:#39314C;}
	.st12{fill:none;stroke:#39314C;stroke-width:1.9425;stroke-miterlimit:10;}
	.st13{fill-rule:evenodd;clip-rule:evenodd;fill:#39314C;}
	.st14{fill-rule:evenodd;clip-rule:evenodd;fill:none;stroke:#39314C;stroke-width:2;stroke-miterlimit:10;}
	.st15{fill-rule:evenodd;clip-rule:evenodd;fill:#39314C;stroke:#39314C;stroke-width:1.6222;stroke-miterlimit:10;}
	.st16{clip-path:url(#SVGID_10_);}
	.st17{clip-path:url(#SVGID_12_);}
	.st18{fill:#FFFFFF;stroke:#39314C;stroke-width:2;stroke-linejoin:round;stroke-miterlimit:10;}
	.st19{clip-path:url(#SVGID_14_);}
	.st20{clip-path:url(#SVGID_16_);fill:#48E584;}
	.st21{fill:#39314C;stroke:#39314C;stroke-width:2;stroke-miterlimit:10;}
	.st22{fill:#48E584;stroke:#48E584;stroke-linecap:round;stroke-miterlimit:10;}
	.st23{fill:#39314C;stroke:#39314C;stroke-miterlimit:10;}
	.st24{fill:#48E584;stroke:#48E584;stroke-width:2;stroke-linecap:round;stroke-miterlimit:10;}
	.st25{fill:#FFFFFF;stroke:#48E584;stroke-width:2;stroke-linecap:round;stroke-linejoin:round;stroke-miterlimit:10;}
	.st26{fill:#FFFFFF;stroke:#39314C;stroke-width:2;stroke-miterlimit:10;}
	.st27{fill:#FFFFFF;stroke:#39314C;stroke-width:2;stroke-linecap:round;stroke-miterlimit:10;}
	.st28{fill:#48E584;stroke:#39314C;stroke-width:2;stroke-miterlimit:10;}
	.st29{fill:none;stroke:#39314C;stroke-width:3;stroke-miterlimit:10;}
	.st30{fill:none;stroke:#39314C;stroke-width:3;stroke-linejoin:round;stroke-miterlimit:10;}
</style>
<g>
	<defs>
		<path id="SVGID_1_" d="M300.7-359.4c-0.9,0-1.5,0.7-1.5,1.5v20.5c0,0.9,0.7,1.5,1.5,1.5c0.9,0,1.5-0.7,1.5-1.5v-20.5
			C302.2-358.7,301.5-359.4,300.7-359.4z"/>
	</defs>
	<clipPath id="SVGID_2_">
		<use xlink:href="#SVGID_1_"  style="overflow:visible;"/>
	</clipPath>
	<g class="st8">
		<defs>
			<rect id="SVGID_3_" x="-421.2" y="-1099" width="1366" height="1696"/>
		</defs>
		<clipPath id="SVGID_4_">
			<use xlink:href="#SVGID_3_"  style="overflow:visible;"/>
		</clipPath>
	</g>
</g>
<g>
	<defs>
		<path id="SVGID_5_" d="M300.7-333.1c-0.9,0-1.5,0.7-1.5,1.5v8.2c0,0.9,0.7,1.5,1.5,1.5c0.9,0,1.5-0.7,1.5-1.5v-8.2
			C302.2-332.4,301.5-333.1,300.7-333.1z"/>
	</defs>
	<clipPath id="SVGID_6_">
		<use xlink:href="#SVGID_5_"  style="overflow:visible;"/>
	</clipPath>
	<g class="st10">
		<defs>
			<rect id="SVGID_7_" x="-421.2" y="-1099" width="1366" height="1696"/>
		</defs>
		<clipPath id="SVGID_8_">
			<use xlink:href="#SVGID_7_"  style="overflow:visible;"/>
		</clipPath>
	</g>
</g>
<g>
	<path class="st0" d="M74.7,17.6v58.1H4.4V17.6H74.7 M75.9,14.6H3.2c-1,0-1.8,0.7-1.8,1.6v60.9c0,0.9,0.8,1.6,1.8,1.6h72.8
		c1,0,1.8-0.7,1.8-1.6V16.2C77.7,15.3,76.9,14.6,75.9,14.6L75.9,14.6z"/>
</g>
<g>
	<path class="st0" d="M75.1,23.1H4c-1.4,0-2.6-1.2-2.6-2.6v-5.4c0-1.4,1.2-2.6,2.6-2.6h71.1c1.4,0,2.6,1.2,2.6,2.6v5.4
		C77.7,21.9,76.6,23.1,75.1,23.1z"/>
</g>
<g>
	<path class="st0" d="M39.3,55.1c-0.2,0-0.4,0-0.6-0.1l-9.6-2.8l1.3-0.8L5.2,12.8l0.4-0.3c-0.5-0.2-1-0.6-1.3-1.1L2.2,8.1l11.1-7.2
		l2.2,3.4c0.3,0.5,0.5,1,0.5,1.6l0.4-0.3l25.2,38.6l1.3-0.8l-1.3,9.9C41.3,54.3,40.4,55.1,39.3,55.1C39.3,55.1,39.3,55.1,39.3,55.1z
		"/>
	<path class="st1" d="M12.9,2.6l1.5,2.3c0.5,0.7,0.3,1.7-0.5,2.2l-6.3,4.1c-0.3,0.2-0.6,0.3-0.8,0.3c-0.5,0-1-0.2-1.3-0.7L4,8.4
		L12.9,2.6 M16,7.3l24.4,37.5l-8.9,5.8L7,13.1L16,7.3 M41.1,46l-0.9,7c-0.1,0.5-0.5,0.8-0.9,0.8c-0.1,0-0.2,0-0.3,0l-6.8-2L41.1,46
		 M13.7-1l-2.2,1.4L2.6,6.2L0.4,7.7l1.4,2.2l1.5,2.3c0.1,0.1,0.1,0.2,0.2,0.2l0,0l1.4,2.2L28.6,51L26,52.7l4.5,1.3l0.2,0.3l0.2-0.1
		l0.5,0.2l6.8,2c0.3,0.1,0.7,0.1,1,0.1c1.8,0,3.3-1.3,3.5-3.1l0.9-7l0.1-0.6l0.2-0.1l-0.2-0.3l0.6-4.7l-2.6,1.7L18.1,5.9l-1.4-2.2
		l0,0c0-0.1-0.1-0.2-0.1-0.2l-1.5-2.3L13.7-1L13.7-1z"/>
</g>
</svg>
