<?xml version="1.0" encoding="iso-8859-1"?>
<!-- Generator: Adobe Illustrator 19.0.0, SVG Export Plug-In . SVG Version: 6.00 Build 0)  -->
<svg version="1.1" id="Capa_1" xmlns="http://www.w3.org/2000/svg" xmlns:xlink="http://www.w3.org/1999/xlink" x="0px" y="0px"
	 viewBox="0 0 490.2 490.2" style="enable-background:new 0 0 490.2 490.2;" xml:space="preserve">
<g>
	<g>
		<g>
			<path d="M341.1,34.3h90.5l-206.9,207c-6.7,6.7-6.7,17.6,0,24.3c3.3,3.3,7.7,5,12.1,5s8.8-1.7,12.1-5l207-207v90.5
				c0,9.5,7.7,17.2,17.1,17.2c9.5,0,17.2-7.7,17.2-17.2V17.2C490.2,7.7,482.5,0,473,0H341.1c-9.5,0-17.2,7.7-17.2,17.2
				C324,26.6,331.6,34.3,341.1,34.3z"/>
			<path d="M102.9,490.2h284.3c56.8,0,102.9-46.2,102.9-102.9V253.4c0-9.5-7.7-17.1-17.2-17.1s-17.1,7.7-17.1,17.1v133.8
				c0,37.8-30.8,68.6-68.6,68.6H102.9c-37.8,0-68.6-30.8-68.6-68.6V161.4V103c0-37.8,30.8-68.6,68.6-68.6h132.7
				c9.5,0,17.1-7.7,17.1-17.2S245,0,235.6,0H102.9C46.1,0,0,46.2,0,102.9v58.4v225.9C0,444,46.2,490.2,102.9,490.2z"/>
		</g>
	</g>
	<g>
	</g>
	<g>
	</g>
	<g>
	</g>
	<g>
	</g>
	<g>
	</g>
	<g>
	</g>
	<g>
	</g>
	<g>
	</g>
	<g>
	</g>
	<g>
	</g>
	<g>
	</g>
	<g>
	</g>
	<g>
	</g>
	<g>
	</g>
	<g>
	</g>
</g>
<g>
</g>
<g>
</g>
<g>
</g>
<g>
</g>
<g>
</g>
<g>
</g>
<g>
</g>
<g>
</g>
<g>
</g>
<g>
</g>
<g>
</g>
<g>
</g>
<g>
</g>
<g>
</g>
<g>
</g>
</svg>
