<?xml version="1.0" encoding="iso-8859-1"?>
<!-- Generator: Adobe Illustrator 19.0.0, SVG Export Plug-In . SVG Version: 6.00 Build 0)  -->
<svg version="1.1" id="Capa_1" xmlns="http://www.w3.org/2000/svg" xmlns:xlink="http://www.w3.org/1999/xlink" x="0px" y="0px"
	 viewBox="0 0 489.6 489.6" style="enable-background:new 0 0 489.6 489.6;" xml:space="preserve">
<g>
	<g>
		<g>
			<path d="M353.7,85.738c6.5-2,13.5-1.3,19.5,1.9c6,3.2,10.4,8.6,12.4,15.1v0.1c0,0,0,0,0,0.1l43,136.4c-13-5.9-27.5-9.2-42.7-9.2
				c-52,0-95.1,38.4-102.5,88.4H206c-8.2-49-50.9-86.5-102.3-86.5c-15.3,0-29.8,3.3-42.8,9.3l43.5-138.3c0,0,0,0,0-0.1v-0.1
				c4.1-13.5,18.4-21.1,31.9-17c9.1,2.7,18.6-2.4,21.4-11.4c2.8-9.1-2.4-18.6-11.4-21.4c-31.5-9.6-64.9,8.2-74.6,39.6c0,0,0,0,0,0.1
				v0.1l0,0l0,0l-63.8,202.6c-0.2,0.6-0.3,1.2-0.5,1.8c-4.8,11.9-7.4,24.9-7.4,38.4c0,57.2,46.5,103.7,103.7,103.7
				c51.3,0,94.1-37.5,102.3-86.5h78c8.9,48.1,51.2,84.7,101.9,84.7c57.2,0,103.7-46.5,103.7-103.7c0-13.7-2.7-26.7-7.5-38.7
				l-63.8-202.5v-0.1c-4.7-15.2-15-27.7-29-35.2c-14.1-7.5-30.3-9.1-45.6-4.5c-9.1,2.8-14.2,12.3-11.4,21.4
				C335,83.438,344.6,88.538,353.7,85.738z M103.7,405.038c-38.3,0-69.4-31.1-69.4-69.4s31.1-69.4,69.4-69.4s69.4,31.1,69.4,69.4
				S142,405.038,103.7,405.038z M385.9,403.238c-38.3,0-69.4-31.1-69.4-69.4s31.1-69.4,69.4-69.4s69.4,31.1,69.4,69.4
				S424.1,403.238,385.9,403.238z"/>
		</g>
	</g>
	<g>
	</g>
	<g>
	</g>
	<g>
	</g>
	<g>
	</g>
	<g>
	</g>
	<g>
	</g>
	<g>
	</g>
	<g>
	</g>
	<g>
	</g>
	<g>
	</g>
	<g>
	</g>
	<g>
	</g>
	<g>
	</g>
	<g>
	</g>
	<g>
	</g>
</g>
<g>
</g>
<g>
</g>
<g>
</g>
<g>
</g>
<g>
</g>
<g>
</g>
<g>
</g>
<g>
</g>
<g>
</g>
<g>
</g>
<g>
</g>
<g>
</g>
<g>
</g>
<g>
</g>
<g>
</g>
</svg>
