<?xml version="1.0" encoding="iso-8859-1"?>
<!-- Generator: Adobe Illustrator 19.0.0, SVG Export Plug-In . SVG Version: 6.00 Build 0)  -->
<svg version="1.1" id="Capa_1" xmlns="http://www.w3.org/2000/svg" xmlns:xlink="http://www.w3.org/1999/xlink" x="0px" y="0px"
	 viewBox="0 0 484.8 484.8" style="enable-background:new 0 0 484.8 484.8;" xml:space="preserve">
<g>
	<g>
		<g>
			<path d="M242.4,484.8c133.7,0,242.4-108.8,242.4-242.4C484.8,108.7,376,0,242.4,0C108.7,0,0,108.7,0,242.4
				S108.7,484.8,242.4,484.8z M242.4,34.3c114.8,0,208.1,93.4,208.1,208.1c0,114.8-93.4,208.1-208.1,208.1
				c-114.8,0-208.1-93.4-208.1-208.1C34.3,127.6,127.6,34.3,242.4,34.3z"/>
			<path d="M230.1,380.6l0.2,0.2c3.2,3.2,7.6,5.1,12.1,5.1l0,0c4.5,0,8.9-1.8,12.1-5l108.9-108.8c16.1-16.1,24.9-37.4,24.9-60.1
				s-8.8-44.1-24.9-60.1c-16-16-37.4-24.9-60-24.9c-22.7,0-44,8.9-60.1,24.9l-0.9,0.9l-1-1c-16.1-16.1-37.5-24.9-60.2-24.9
				s-44,8.8-60,24.9c-33.1,33.1-33.1,87,0.1,120.2L230.1,380.6z M145.6,176c9.6-9.6,22.2-14.8,35.7-14.8s26.3,5.3,35.9,14.9
				l13.1,13.1c6.7,6.7,17.6,6.7,24.3,0l13-13c9.6-9.6,22.3-14.9,35.9-14.9c13.5,0,26.2,5.3,35.8,14.8c9.6,9.6,14.8,22.3,14.8,35.8
				s-5.3,26.3-14.9,35.9l-96.7,96.7l-96.8-96.8c-9.6-9.6-14.9-22.3-14.9-35.8C130.7,198.3,136,185.6,145.6,176z"/>
		</g>
	</g>
	<g>
	</g>
	<g>
	</g>
	<g>
	</g>
	<g>
	</g>
	<g>
	</g>
	<g>
	</g>
	<g>
	</g>
	<g>
	</g>
	<g>
	</g>
	<g>
	</g>
	<g>
	</g>
	<g>
	</g>
	<g>
	</g>
	<g>
	</g>
	<g>
	</g>
</g>
<g>
</g>
<g>
</g>
<g>
</g>
<g>
</g>
<g>
</g>
<g>
</g>
<g>
</g>
<g>
</g>
<g>
</g>
<g>
</g>
<g>
</g>
<g>
</g>
<g>
</g>
<g>
</g>
<g>
</g>
</svg>
