<?xml version="1.0" encoding="iso-8859-1"?>
<!-- Generator: Adobe Illustrator 19.0.0, SVG Export Plug-In . SVG Version: 6.00 Build 0)  -->
<svg version="1.1" id="Capa_1" xmlns="http://www.w3.org/2000/svg" xmlns:xlink="http://www.w3.org/1999/xlink" x="0px" y="0px"
	 viewBox="0 0 485.3 485.3" style="enable-background:new 0 0 485.3 485.3;" xml:space="preserve">
<g>
	<g>
		<g>
			<path d="M349.6,28.95c-36.3,0-70.5,14.2-96.2,39.9l-10.6,10.6L232,68.65c-25.7-25.7-59.9-39.9-96.2-39.9
				c-36.2,0-70.3,14.1-96,39.8S0,128.35,0,164.65s14.2,70.4,39.9,96.1l190.5,190.5l0.4,0.4c3.3,3.3,7.7,4.9,12,4.9
				c4.4,0,8.8-1.7,12.1-5l190.5-190.5c25.7-25.7,39.9-59.8,39.9-96.1s-14.1-70.5-39.8-96.1C419.9,43.05,385.8,28.95,349.6,28.95z
				 M421.2,236.75l-178.3,178.4L64.2,236.45c-19.2-19.2-29.8-44.7-29.9-71.9c0-27.1,10.5-52.6,29.7-71.8
				c19.2-19.1,44.7-29.7,71.7-29.7c27.2,0,52.7,10.6,72,29.9l22.9,22.9c6.4,6.4,17.8,6.4,24.3,0l22.8-22.8
				c19.2-19.2,44.8-29.8,71.9-29.8s52.6,10.6,71.8,29.8c19.2,19.2,29.8,44.7,29.7,71.9C451.1,192.05,440.5,217.55,421.2,236.75z"/>
		</g>
	</g>
	<g>
	</g>
	<g>
	</g>
	<g>
	</g>
	<g>
	</g>
	<g>
	</g>
	<g>
	</g>
	<g>
	</g>
	<g>
	</g>
	<g>
	</g>
	<g>
	</g>
	<g>
	</g>
	<g>
	</g>
	<g>
	</g>
	<g>
	</g>
	<g>
	</g>
</g>
<g>
</g>
<g>
</g>
<g>
</g>
<g>
</g>
<g>
</g>
<g>
</g>
<g>
</g>
<g>
</g>
<g>
</g>
<g>
</g>
<g>
</g>
<g>
</g>
<g>
</g>
<g>
</g>
<g>
</g>
</svg>
