<?xml version="1.0" encoding="iso-8859-1"?>
<!-- Generator: Adobe Illustrator 19.0.0, SVG Export Plug-In . SVG Version: 6.00 Build 0)  -->
<svg version="1.1" id="Capa_1" xmlns="http://www.w3.org/2000/svg" xmlns:xlink="http://www.w3.org/1999/xlink" x="0px" y="0px"
	 viewBox="0 0 489.9 489.9" style="enable-background:new 0 0 489.9 489.9;" xml:space="preserve">
<g>
	<g>
		<g>
			<path d="M227.75,376.9v95.8c0,9.5,7.7,17.1,17.1,17.1s17.2-7.7,17.2-17.1v-95.8c31.7-7.7,55.3-36.3,55.3-70.4
				s-23.6-62.6-55.3-70.4v-219c0-9.5-7.7-17.1-17.2-17.1s-17.1,7.7-17.1,17.1v219c-31.7,7.7-55.3,36.3-55.3,70.4
				S196.15,369.2,227.75,376.9z M244.95,268.4c21,0,38.1,17.1,38.1,38.1s-17.1,38.2-38.1,38.2s-38.1-17.1-38.1-38.1
				S223.95,268.4,244.95,268.4z"/>
			<path d="M151.15,192.7c0-34-23.6-62.6-55.3-70.4V17.2c0-9.5-7.7-17.1-17.2-17.1s-17.1,7.7-17.1,17.1v105.1
				c-31.7,7.7-55.3,36.3-55.3,70.4s23.6,62.6,55.3,70.4v209.7c0,9.5,7.7,17.1,17.1,17.1s17.2-7.7,17.2-17.1V263.1
				C127.55,255.4,151.15,226.8,151.15,192.7z M78.75,230.9c-21,0-38.1-17.1-38.1-38.1c0-20.7,16.6-37.6,37.3-38.1c0.3,0,0.6,0,0.9,0
				s0.6,0,0.9,0c20.6,0.5,37.3,17.4,37.3,38.1C116.85,213.7,99.75,230.9,78.75,230.9z"/>
			<path d="M411.15,489.9c9.5,0,17.2-7.7,17.2-17.1V263.1c31.7-7.7,55.3-36.3,55.3-70.4s-23.6-62.6-55.3-70.4V17.2
				c0-9.5-7.7-17.1-17.2-17.1s-17.1,7.7-17.1,17.1v105.1c-31.7,7.7-55.3,36.3-55.3,70.4s23.6,62.6,55.3,70.4v209.7
				C394.05,482.3,401.75,489.9,411.15,489.9z M373.05,192.7c0-20.7,16.6-37.6,37.3-38.1c0.3,0,0.6,0,0.9,0s0.6,0,0.9,0
				c20.6,0.5,37.3,17.4,37.3,38.1c0,21-17.1,38.1-38.1,38.1S373.05,213.7,373.05,192.7z"/>
		</g>
	</g>
	<g>
	</g>
	<g>
	</g>
	<g>
	</g>
	<g>
	</g>
	<g>
	</g>
	<g>
	</g>
	<g>
	</g>
	<g>
	</g>
	<g>
	</g>
	<g>
	</g>
	<g>
	</g>
	<g>
	</g>
	<g>
	</g>
	<g>
	</g>
	<g>
	</g>
</g>
<g>
</g>
<g>
</g>
<g>
</g>
<g>
</g>
<g>
</g>
<g>
</g>
<g>
</g>
<g>
</g>
<g>
</g>
<g>
</g>
<g>
</g>
<g>
</g>
<g>
</g>
<g>
</g>
<g>
</g>
</svg>
