<?xml version="1.0" encoding="iso-8859-1"?>
<!-- Generator: Adobe Illustrator 19.0.0, SVG Export Plug-In . SVG Version: 6.00 Build 0)  -->
<svg version="1.1" id="Capa_1" xmlns="http://www.w3.org/2000/svg" xmlns:xlink="http://www.w3.org/1999/xlink" x="0px" y="0px"
	 viewBox="0 0 490.1 490.1" style="enable-background:new 0 0 490.1 490.1;" xml:space="preserve">
<g>
	<g>
		<g>
			<path d="M421,162.747H320.1v-69.2c0-33.2-9.9-57.3-29.5-71.6c-30.8-22.6-72.7-9.9-74.5-9.3c-7.1,2.2-12,8.9-12,16.4v83.5
				c0,61.8-72.7,83.3-75.8,84.1c-0.2,0.1-0.4,0.1-0.5,0.2l-8.3,2.6c-9.4-8.9-22-14.3-35.8-14.3H52.2c-28.8-0.1-52.2,23.3-52.2,52.1
				v179.6c0,28.8,23.4,52.2,52.2,52.2h31.5c13.3,0,25.5-5,34.7-13.3c13.2,15.7,33,25.8,55.1,25.8h204.4c47.4,0,78.9-26,84.4-69.5
				l25.4-159.5l1.4-8.6c0.6-4,1-8.1,1-12.2C490,193.747,459,162.747,421,162.747z M101.6,416.947c0,9.9-8,17.9-17.9,17.9H52.2
				c-9.9,0-17.9-8-17.9-17.9v-179.7c0-9.9,8-17.9,17.9-17.9h31.5c9.9,0,17.9,8,17.9,17.9C101.6,237.247,101.6,416.947,101.6,416.947
				z M455.2,238.647l-26.8,168.4c0,0.2-0.1,0.4-0.1,0.6c-1.2,9.8-4.8,39.7-50.4,39.7H173.5c-20.7,0-37.6-16.9-37.6-37.6v-172.5
				c0-2.3-0.2-4.6-0.5-6.9l2.5-0.8c7.3-2.1,100.5-30.7,100.5-117.1v-69.3c9.9-1,22.9-0.3,32,6.5c10.2,7.6,15.4,22.3,15.4,43.9v86.4
				c0,9.5,7.7,17.2,17.2,17.2h118c19.2,0,34.7,15.6,34.7,34.7C455.7,234.047,455.5,236.347,455.2,238.647z"/>
		</g>
	</g>
	<g>
	</g>
	<g>
	</g>
	<g>
	</g>
	<g>
	</g>
	<g>
	</g>
	<g>
	</g>
	<g>
	</g>
	<g>
	</g>
	<g>
	</g>
	<g>
	</g>
	<g>
	</g>
	<g>
	</g>
	<g>
	</g>
	<g>
	</g>
	<g>
	</g>
</g>
<g>
</g>
<g>
</g>
<g>
</g>
<g>
</g>
<g>
</g>
<g>
</g>
<g>
</g>
<g>
</g>
<g>
</g>
<g>
</g>
<g>
</g>
<g>
</g>
<g>
</g>
<g>
</g>
<g>
</g>
</svg>
