<?xml version="1.0" encoding="iso-8859-1"?>
<!-- Generator: Adobe Illustrator 19.0.0, SVG Export Plug-In . SVG Version: 6.00 Build 0)  -->
<svg version="1.1" id="Capa_1" xmlns="http://www.w3.org/2000/svg" xmlns:xlink="http://www.w3.org/1999/xlink" x="0px" y="0px"
	 viewBox="0 0 490 490" style="enable-background:new 0 0 490 490;" xml:space="preserve">
<g>
	<g>
		<g>
			<path d="M87.4,135.6c37.4,0,67.8-30.4,67.8-67.8S124.8,0,87.4,0S19.6,30.4,19.6,67.8C19.7,105.2,50.1,135.6,87.4,135.6z
				 M87.4,34.3c18.5,0,33.5,15,33.5,33.5s-15,33.5-33.5,33.5C69,101.3,54,86.3,54,67.8S69,34.3,87.4,34.3z"/>
			<path d="M87.4,312.8c37.4,0,67.8-30.4,67.8-67.8s-30.4-67.8-67.8-67.8S19.6,207.6,19.6,245C19.7,282.4,50.1,312.8,87.4,312.8z
				 M87.4,211.5c18.5,0,33.5,15,33.5,33.5s-15,33.5-33.5,33.5C69,278.5,54,263.5,54,245S69,211.5,87.4,211.5z"/>
			<path d="M87.4,490c37.4,0,67.8-30.4,67.8-67.8s-30.4-67.8-67.8-67.8s-67.8,30.4-67.8,67.8C19.7,459.6,50.1,490,87.4,490z
				 M87.4,388.7c18.5,0,33.5,15,33.5,33.5s-15,33.5-33.5,33.5s-33.5-15-33.5-33.5C54,403.7,69,388.7,87.4,388.7z"/>
			<path d="M195,64.6c0,9.5,7.7,17.2,17.2,17.2h241c9.5,0,17.2-7.7,17.2-17.2s-7.7-17.2-17.2-17.2h-241
				C202.7,47.4,195,55.1,195,64.6z"/>
			<path d="M208.9,262.1h241c9.5,0,17.2-7.7,17.2-17.1c0-9.5-7.7-17.2-17.2-17.2h-241c-9.5,0-17.1,7.7-17.1,17.2
				C191.8,254.5,199.4,262.1,208.9,262.1z"/>
			<path d="M208.9,439.4h241c9.5,0,17.2-7.7,17.2-17.1s-7.7-17.2-17.2-17.2h-241c-9.5,0-17.1,7.7-17.1,17.2S199.4,439.4,208.9,439.4
				z"/>
		</g>
	</g>
	<g>
	</g>
	<g>
	</g>
	<g>
	</g>
	<g>
	</g>
	<g>
	</g>
	<g>
	</g>
	<g>
	</g>
	<g>
	</g>
	<g>
	</g>
	<g>
	</g>
	<g>
	</g>
	<g>
	</g>
	<g>
	</g>
	<g>
	</g>
	<g>
	</g>
</g>
<g>
</g>
<g>
</g>
<g>
</g>
<g>
</g>
<g>
</g>
<g>
</g>
<g>
</g>
<g>
</g>
<g>
</g>
<g>
</g>
<g>
</g>
<g>
</g>
<g>
</g>
<g>
</g>
<g>
</g>
</svg>
