<?xml version="1.0" encoding="iso-8859-1"?>
<!-- Generator: Adobe Illustrator 19.0.0, SVG Export Plug-In . SVG Version: 6.00 Build 0)  -->
<svg version="1.1" id="Capa_1" xmlns="http://www.w3.org/2000/svg" xmlns:xlink="http://www.w3.org/1999/xlink" x="0px" y="0px"
	 viewBox="0 0 490.2 490.2" style="enable-background:new 0 0 490.2 490.2;" xml:space="preserve">
<g>
	<g>
		<g>
			<path d="M146.146,99.2v127.6c0,54.7,44.5,99.2,99.2,99.2s99.2-44.5,99.2-99.2V99.2c0-54.7-44.5-99.2-99.2-99.2
				S146.146,44.5,146.146,99.2z M310.246,99.2v127.6c0,35.8-29.1,64.9-64.9,64.9s-64.9-29.1-64.9-64.9V99.2
				c0-35.8,29.1-64.9,64.9-64.9S310.246,63.4,310.246,99.2z"/>
			<path d="M393.046,209.7c-9.5,0-17.2,7.7-17.2,17.1c0,72-58.6,130.6-130.6,130.6s-130.6-58.6-130.6-130.6
				c0-9.5-7.7-17.1-17.2-17.1s-17.2,7.7-17.2,17.1c0,85.1,64.8,155.4,147.7,164v65.1h-57.3c-9.5,0-17.2,7.7-17.2,17.2
				s7.7,17.1,17.2,17.1h148.9c9.5,0,17.2-7.7,17.2-17.1c0-9.5-7.7-17.2-17.2-17.2h-57.3v-65.1c82.9-8.6,147.7-78.9,147.7-164
				C410.246,217.4,402.546,209.7,393.046,209.7z"/>
		</g>
	</g>
	<g>
	</g>
	<g>
	</g>
	<g>
	</g>
	<g>
	</g>
	<g>
	</g>
	<g>
	</g>
	<g>
	</g>
	<g>
	</g>
	<g>
	</g>
	<g>
	</g>
	<g>
	</g>
	<g>
	</g>
	<g>
	</g>
	<g>
	</g>
	<g>
	</g>
</g>
<g>
</g>
<g>
</g>
<g>
</g>
<g>
</g>
<g>
</g>
<g>
</g>
<g>
</g>
<g>
</g>
<g>
</g>
<g>
</g>
<g>
</g>
<g>
</g>
<g>
</g>
<g>
</g>
<g>
</g>
</svg>
