<?xml version="1.0" encoding="iso-8859-1"?>
<!-- Generator: Adobe Illustrator 19.0.0, SVG Export Plug-In . SVG Version: 6.00 Build 0)  -->
<svg version="1.1" id="Capa_1" xmlns="http://www.w3.org/2000/svg" xmlns:xlink="http://www.w3.org/1999/xlink" x="0px" y="0px"
	 viewBox="0 0 490 490" style="enable-background:new 0 0 490 490;" xml:space="preserve">
<g>
	<g>
		<g>
			<path d="M490,245C490,109.9,380.1,0,245,0S0,109.9,0,245s109.9,245,245,245S490,380.1,490,245z M34.3,245
				c0-116.2,94.5-210.7,210.7-210.7S455.7,128.8,455.7,245S361.2,455.7,245,455.7S34.3,361.2,34.3,245z"/>
			<path d="M302.3,232.9l-72.1-72.1c-6.7-6.7-17.6-6.7-24.3,0s-6.7,17.6,0,24.3l60,60l-60,60c-6.7,6.7-6.7,17.6,0,24.3
				c3.3,3.3,7.7,5,12.1,5c4.4,0,8.8-1.7,12.1-5l72.1-72.1C309,250.4,309,239.6,302.3,232.9z"/>
		</g>
	</g>
	<g>
	</g>
	<g>
	</g>
	<g>
	</g>
	<g>
	</g>
	<g>
	</g>
	<g>
	</g>
	<g>
	</g>
	<g>
	</g>
	<g>
	</g>
	<g>
	</g>
	<g>
	</g>
	<g>
	</g>
	<g>
	</g>
	<g>
	</g>
	<g>
	</g>
</g>
<g>
</g>
<g>
</g>
<g>
</g>
<g>
</g>
<g>
</g>
<g>
</g>
<g>
</g>
<g>
</g>
<g>
</g>
<g>
</g>
<g>
</g>
<g>
</g>
<g>
</g>
<g>
</g>
<g>
</g>
</svg>
