<?xml version="1.0" encoding="iso-8859-1"?>
<!-- Generator: Adobe Illustrator 19.0.0, SVG Export Plug-In . SVG Version: 6.00 Build 0)  -->
<svg version="1.1" id="Capa_1" xmlns="http://www.w3.org/2000/svg" xmlns:xlink="http://www.w3.org/1999/xlink" x="0px" y="0px"
	 viewBox="0 0 489.8 489.8" style="enable-background:new 0 0 489.8 489.8;" xml:space="preserve">
<g>
	<g>
		<g>
			<path d="M455.5,51.1v387.6c0,9.5,7.7,17.2,17.2,17.2s17.1-7.7,17.1-17.2V51.1c0-9.5-7.7-17.2-17.1-17.2
				C463.2,34,455.5,41.6,455.5,51.1z"/>
			<path d="M251.8,363.9c3.3,3.3,7.7,5,12.1,5s8.8-1.7,12.1-5L382.9,257c6.7-6.7,6.7-17.6,0-24.3L276.1,125.9
				c-6.7-6.7-17.6-6.7-24.3,0c-6.7,6.7-6.7,17.6,0,24.3l77.6,77.6H17.2c-9.5,0-17.2,7.7-17.2,17.1c0,9.5,7.7,17.2,17.2,17.2h312.3
				l-77.6,77.6C245.1,346.4,245.1,357.2,251.8,363.9z"/>
		</g>
	</g>
	<g>
	</g>
	<g>
	</g>
	<g>
	</g>
	<g>
	</g>
	<g>
	</g>
	<g>
	</g>
	<g>
	</g>
	<g>
	</g>
	<g>
	</g>
	<g>
	</g>
	<g>
	</g>
	<g>
	</g>
	<g>
	</g>
	<g>
	</g>
	<g>
	</g>
</g>
<g>
</g>
<g>
</g>
<g>
</g>
<g>
</g>
<g>
</g>
<g>
</g>
<g>
</g>
<g>
</g>
<g>
</g>
<g>
</g>
<g>
</g>
<g>
</g>
<g>
</g>
<g>
</g>
<g>
</g>
</svg>
