<?xml version="1.0" encoding="iso-8859-1"?>
<!-- Generator: Adobe Illustrator 19.0.0, SVG Export Plug-In . SVG Version: 6.00 Build 0)  -->
<svg version="1.1" id="Capa_1" xmlns="http://www.w3.org/2000/svg" xmlns:xlink="http://www.w3.org/1999/xlink" x="0px" y="0px"
	 viewBox="0 0 490.333 490.333" style="enable-background:new 0 0 490.333 490.333;" xml:space="preserve">
<g>
	<g>
		<g>
			<path d="M0.133,438.672c0,7.8,5.2,14.6,12.8,16.6c1.5,0.4,2.9,0.6,4.4,0.6c6.1,0,11.8-3.2,14.9-8.7
				c70-123.5,127.9-131.3,210.8-131.8v88.4c0,6.6,3.8,12.7,9.8,15.5c6,2.8,13.1,1.9,18.2-2.3l213.1-176.3c3.9-3.3,6.2-8.1,6.2-13.2
				c0-5.1-2.3-10-6.2-13.2l-213.1-175.9c-5.1-4.2-12.2-5.1-18.2-2.3c-6,2.8-9.8,8.9-9.8,15.5v88.9c-103,4.6-173.9,41.8-211.2,110.7
				c-32.3,59.8-32,130.3-31.8,176.9C0.133,431.672,0.133,435.272,0.133,438.672z M260.333,174.372c9.4-0.1,17-7.7,17-17.2v-69.1
				l169,139.4l-169.1,139.8v-69.2c0-4.5-1.8-8.9-5-12.1s-7.6-5-12.1-5l0,0c-92.6,0-157.3,5.4-225,98
				C39.433,287.672,69.333,176.272,260.333,174.372z"/>
		</g>
	</g>
	<g>
	</g>
	<g>
	</g>
	<g>
	</g>
	<g>
	</g>
	<g>
	</g>
	<g>
	</g>
	<g>
	</g>
	<g>
	</g>
	<g>
	</g>
	<g>
	</g>
	<g>
	</g>
	<g>
	</g>
	<g>
	</g>
	<g>
	</g>
	<g>
	</g>
</g>
<g>
</g>
<g>
</g>
<g>
</g>
<g>
</g>
<g>
</g>
<g>
</g>
<g>
</g>
<g>
</g>
<g>
</g>
<g>
</g>
<g>
</g>
<g>
</g>
<g>
</g>
<g>
</g>
<g>
</g>
</svg>
