<?xml version="1.0" encoding="iso-8859-1"?>
<!-- Generator: Adobe Illustrator 19.0.0, SVG Export Plug-In . SVG Version: 6.00 Build 0)  -->
<svg version="1.1" id="Capa_1" xmlns="http://www.w3.org/2000/svg" xmlns:xlink="http://www.w3.org/1999/xlink" x="0px" y="0px"
	 viewBox="0 0 489.9 489.9" style="enable-background:new 0 0 489.9 489.9;" xml:space="preserve">
<g>
	<g>
		<g>
			<path d="M209.35,17.1c0-9.5-7.7-17.1-17.2-17.1H78.35c-9.5,0-17.2,7.7-17.2,17.1V131c0,9.5,7.7,17.1,17.2,17.1h113.9
				c9.5,0,17.2-7.7,17.2-17.1V17.1H209.35z M175.05,113.8h-79.6V34.2h79.6V113.8z"/>
			<path d="M192.25,170.8H78.35c-9.5,0-17.2,7.7-17.2,17.1v114c0,9.5,7.7,17.1,17.2,17.1h113.9c9.5,0,17.2-7.7,17.2-17.1v-114
				C209.35,178.5,201.75,170.8,192.25,170.8z M175.05,284.7h-79.6v-79.6h79.6V284.7z"/>
			<path d="M78.35,489.9h113.9c9.5,0,17.2-7.7,17.2-17.1v-39.9h202.2c9.5,0,17.1-7.7,17.1-17.2V71.9c0-9.5-7.7-17.2-17.1-17.2
				h-103.1l6.9-6.9c6.7-6.7,6.7-17.6,0-24.3s-17.6-6.7-24.3,0l-36.2,36.3c-6.7,6.7-6.7,17.6,0,24.3l36.1,36.1c3.3,3.3,7.7,5,12.1,5
				s8.8-1.7,12.1-5c6.7-6.7,6.7-17.6,0-24.3l-6.9-6.9h85.9v309.5h-185v-39.8c0-9.5-7.7-17.2-17.2-17.2H78.35
				c-9.5,0-17.2,7.7-17.2,17.2v113.9C61.15,482.2,68.85,489.9,78.35,489.9z M95.45,376h79.6v79.6h-79.6
				C95.45,455.6,95.45,376,95.45,376z"/>
		</g>
	</g>
	<g>
	</g>
	<g>
	</g>
	<g>
	</g>
	<g>
	</g>
	<g>
	</g>
	<g>
	</g>
	<g>
	</g>
	<g>
	</g>
	<g>
	</g>
	<g>
	</g>
	<g>
	</g>
	<g>
	</g>
	<g>
	</g>
	<g>
	</g>
	<g>
	</g>
</g>
<g>
</g>
<g>
</g>
<g>
</g>
<g>
</g>
<g>
</g>
<g>
</g>
<g>
</g>
<g>
</g>
<g>
</g>
<g>
</g>
<g>
</g>
<g>
</g>
<g>
</g>
<g>
</g>
<g>
</g>
</svg>
