<?xml version="1.0" encoding="iso-8859-1"?>
<!-- Generator: Adobe Illustrator 19.0.0, SVG Export Plug-In . SVG Version: 6.00 Build 0)  -->
<svg version="1.1" id="Capa_1" xmlns="http://www.w3.org/2000/svg" xmlns:xlink="http://www.w3.org/1999/xlink" x="0px" y="0px"
	 viewBox="0 0 490.4 490.4" style="enable-background:new 0 0 490.4 490.4;" xml:space="preserve">
<g>
	<g>
		<g>
			<path d="M490.4,381.45v-211.8c0-33.6-27.3-60.9-60.9-60.9h-73.9l-1-4.2c-8.1-34.9-38.8-59.3-74.7-59.3h-69.4
				c-35.9,0-66.6,24.4-74.7,59.3l-1,4.2H60.9c-33.6,0-60.9,27.3-60.9,60.9v211.8c0,35.1,28.6,63.7,63.7,63.7h362.8
				C461.8,445.25,490.4,416.65,490.4,381.45z M456.1,381.45c0,16.2-13.2,29.4-29.4,29.4H63.8c-16.2,0-29.4-13.2-29.4-29.4v-211.8
				c0-14.6,11.9-26.6,26.6-26.6h87.5c8,0,14.9-5.5,16.7-13.3l4.1-17.4c4.5-19.3,21.5-32.8,41.3-32.8H280c19.8,0,36.8,13.5,41.3,32.8
				l4.1,17.4c1.8,7.8,8.7,13.3,16.7,13.3h87.5c14.6,0,26.6,11.9,26.6,26.6v211.8H456.1z"/>
			<path d="M245.2,171.55c-58.4,0-106,47.5-106,106c0,58.4,47.5,106,106,106c58.4,0,106-47.5,106-106
				C351.1,219.15,303.6,171.55,245.2,171.55z M245.2,349.15c-39.5,0-71.7-32.1-71.7-71.7c0-39.5,32.1-71.7,71.7-71.7
				c39.5,0,71.7,32.1,71.7,71.7C316.8,317.05,284.7,349.15,245.2,349.15z"/>
			<path d="M81.4,171.55h-0.6c-9.5,0-17.1,7.7-17.1,17.2s7.7,17.1,17.1,17.1h0.6c9.5,0,17.2-7.7,17.2-17.1
				C98.5,179.25,90.8,171.55,81.4,171.55z"/>
		</g>
	</g>
	<g>
	</g>
	<g>
	</g>
	<g>
	</g>
	<g>
	</g>
	<g>
	</g>
	<g>
	</g>
	<g>
	</g>
	<g>
	</g>
	<g>
	</g>
	<g>
	</g>
	<g>
	</g>
	<g>
	</g>
	<g>
	</g>
	<g>
	</g>
	<g>
	</g>
</g>
<g>
</g>
<g>
</g>
<g>
</g>
<g>
</g>
<g>
</g>
<g>
</g>
<g>
</g>
<g>
</g>
<g>
</g>
<g>
</g>
<g>
</g>
<g>
</g>
<g>
</g>
<g>
</g>
<g>
</g>
</svg>
