<?xml version="1.0" encoding="iso-8859-1"?>
<!-- Generator: Adobe Illustrator 19.0.0, SVG Export Plug-In . SVG Version: 6.00 Build 0)  -->
<svg version="1.1" id="Capa_1" xmlns="http://www.w3.org/2000/svg" xmlns:xlink="http://www.w3.org/1999/xlink" x="0px" y="0px"
	 viewBox="0 0 490.1 490.1" style="enable-background:new 0 0 490.1 490.1;" xml:space="preserve">
<g>
	<g>
		<g>
			<path d="M279.7,228.95h193.2c9.5,0,17.2-7.7,17.2-17.2c0-51.3-18.7-100.8-52.7-139.2c-39.9-45.2-97.4-71.1-157.7-71.1
				c-9.5,0-17.1,7.7-17.1,17.1v193.2C262.5,221.25,270.2,228.95,279.7,228.95z M296.8,36.55c44.1,4.3,85.2,25.2,114.8,58.7
				c24.6,27.9,39.7,62.6,43.2,99.4h-158V36.55z"/>
			<path d="M218.5,51.65C98,51.65,0,149.65,0,270.15s98,218.5,218.5,218.5s218.5-98,218.5-218.5c0-9.5-7.7-17.2-17.1-17.2H235.7
				V68.85C235.7,59.35,228,51.65,218.5,51.65z M401.9,287.35c-8.7,93.5-87.6,167-183.4,167c-101.6,0-184.2-82.6-184.2-184.2
				c0-95.8,73.5-174.7,167-183.4v183.4c0,9.5,7.7,17.1,17.1,17.1h183.5L401.9,287.35L401.9,287.35z"/>
		</g>
	</g>
	<g>
	</g>
	<g>
	</g>
	<g>
	</g>
	<g>
	</g>
	<g>
	</g>
	<g>
	</g>
	<g>
	</g>
	<g>
	</g>
	<g>
	</g>
	<g>
	</g>
	<g>
	</g>
	<g>
	</g>
	<g>
	</g>
	<g>
	</g>
	<g>
	</g>
</g>
<g>
</g>
<g>
</g>
<g>
</g>
<g>
</g>
<g>
</g>
<g>
</g>
<g>
</g>
<g>
</g>
<g>
</g>
<g>
</g>
<g>
</g>
<g>
</g>
<g>
</g>
<g>
</g>
<g>
</g>
</svg>
