<?xml version="1.0" encoding="iso-8859-1"?>
<!-- Generator: Adobe Illustrator 19.0.0, SVG Export Plug-In . SVG Version: 6.00 Build 0)  -->
<svg version="1.1" id="Capa_1" xmlns="http://www.w3.org/2000/svg" xmlns:xlink="http://www.w3.org/1999/xlink" x="0px" y="0px"
	 viewBox="0 0 489.827 489.827" style="enable-background:new 0 0 489.827 489.827;" xml:space="preserve">
<g>
	<g>
		<g>
			<path d="M237.777,0.127c-99.3,3.4-181.3,80.6-190.8,179.4c-1.8,19-1,38.2,2.6,56.8c0.1,0.8,0.5,3,1.3,6.5
				c3,13.5,7.5,26.6,13.3,39.2c20.2,47.7,64.3,121.1,159.7,200.2c5.9,4.9,13.4,7.6,21,7.6c7.7,0,15.1-2.7,21-7.6
				c95.3-79.1,139.4-152.5,159.7-200.2c5.8-12.6,10.3-25.8,13.3-39c0.5-2.2,1-4.3,1.3-6.4l0,0c2.4-12.4,3.6-25.1,3.6-37.7
				C443.777,86.827,350.477-3.873,237.777,0.127z M406.477,230.127c0,0.2-0.1,0.4-0.1,0.5c-0.1,0.3-0.3,1.8-1,4.6
				c-2.5,11.2-6.3,22.2-11.1,32.6c-0.1,0.2-0.2,0.3-0.2,0.5c-18.6,44.1-59.6,112.2-149.2,186.7c-89.6-74.6-130.6-142.7-149.2-186.7
				c-0.1-0.2-0.1-0.3-0.2-0.5c-4.8-10.5-8.6-21.4-11.1-32.8c-0.5-2.3-0.8-3.7-0.9-4.2c0-0.2-0.1-0.5-0.1-0.7
				c-3-15.5-3.7-31.5-2.2-47.3c7.9-81.7,75.7-145.5,157.9-148.4c2-0.1,3.9-0.1,5.9-0.1c90.7,0,164.6,73.8,164.6,164.6
				C409.477,209.327,408.477,219.827,406.477,230.127z"/>
			<path d="M244.877,95.527c-58.1,0-105.5,47.3-105.5,105.5s47.4,105.4,105.5,105.4s105.5-47.3,105.5-105.5
				S302.977,95.527,244.877,95.527z M244.877,272.127c-39.2,0-71.2-31.9-71.2-71.2c0-39.2,31.9-71.2,71.2-71.2
				c39.2,0,71.2,31.9,71.2,71.2S284.077,272.127,244.877,272.127z"/>
		</g>
	</g>
	<g>
	</g>
	<g>
	</g>
	<g>
	</g>
	<g>
	</g>
	<g>
	</g>
	<g>
	</g>
	<g>
	</g>
	<g>
	</g>
	<g>
	</g>
	<g>
	</g>
	<g>
	</g>
	<g>
	</g>
	<g>
	</g>
	<g>
	</g>
	<g>
	</g>
</g>
<g>
</g>
<g>
</g>
<g>
</g>
<g>
</g>
<g>
</g>
<g>
</g>
<g>
</g>
<g>
</g>
<g>
</g>
<g>
</g>
<g>
</g>
<g>
</g>
<g>
</g>
<g>
</g>
<g>
</g>
</svg>
