<?xml version="1.0" encoding="iso-8859-1"?>
<!-- Generator: Adobe Illustrator 19.0.0, SVG Export Plug-In . SVG Version: 6.00 Build 0)  -->
<svg version="1.1" id="Capa_1" xmlns="http://www.w3.org/2000/svg" xmlns:xlink="http://www.w3.org/1999/xlink" x="0px" y="0px"
	 viewBox="0 0 499.2 499.2" style="enable-background:new 0 0 499.2 499.2;" xml:space="preserve">
<g>
	<g>
		<g>
			<path d="M499.2,249.6c0-9.5-7.7-17.2-17.1-17.2H154.5l63.8-63.8c6.7-6.7,6.7-17.6,0-24.3s-17.6-6.7-24.3,0l-93.1,93.1
				c-3.2,3.2-5,7.6-5,12.1s1.8,8.9,5,12.1l93.1,93.1c3.3,3.3,7.7,5,12.1,5s8.8-1.7,12.1-5c6.7-6.7,6.7-17.6,0-24.3l-63.8-63.8H482
				C491.5,266.7,499.2,259.1,499.2,249.6z"/>
			<path d="M102.8,494.2h283.7c56.7,0,102.7-46.1,102.7-102.7v-58.3c0-9.5-7.7-17.1-17.1-17.1c-9.5,0-17.2,7.7-17.2,17.1v58.3
				c0,37.7-30.7,68.4-68.4,68.4H102.8c-37.7,0-68.4-30.7-68.4-68.4V107.7c0-37.7,30.7-68.4,68.4-68.4h283.7
				c37.7,0,68.4,30.7,68.4,68.4v57.6c0,9.5,7.7,17.2,17.2,17.2s17.1-7.7,17.1-17.2v-57.6C489.2,51,443.1,5,386.5,5H102.8
				C46.1,5,0,51.1,0,107.7v283.7C0,448.1,46.1,494.2,102.8,494.2z"/>
		</g>
	</g>
	<g>
	</g>
	<g>
	</g>
	<g>
	</g>
	<g>
	</g>
	<g>
	</g>
	<g>
	</g>
	<g>
	</g>
	<g>
	</g>
	<g>
	</g>
	<g>
	</g>
	<g>
	</g>
	<g>
	</g>
	<g>
	</g>
	<g>
	</g>
	<g>
	</g>
</g>
<g>
</g>
<g>
</g>
<g>
</g>
<g>
</g>
<g>
</g>
<g>
</g>
<g>
</g>
<g>
</g>
<g>
</g>
<g>
</g>
<g>
</g>
<g>
</g>
<g>
</g>
<g>
</g>
<g>
</g>
</svg>
