<?xml version="1.0" encoding="iso-8859-1"?>
<!-- Generator: Adobe Illustrator 19.0.0, SVG Export Plug-In . SVG Version: 6.00 Build 0)  -->
<svg version="1.1" id="Capa_1" xmlns="http://www.w3.org/2000/svg" xmlns:xlink="http://www.w3.org/1999/xlink" x="0px" y="0px"
	 viewBox="0 0 490.235 490.235" style="enable-background:new 0 0 490.235 490.235;" xml:space="preserve">
<g>
	<g>
		<g>
			<path d="M6.2,240.573l213.1,176.3c5.1,4.2,12.2,5.1,18.2,2.3c6-2.8,9.8-8.9,9.8-15.5v-88.4c82.9,0.4,140.8,8.3,210.8,131.8
				c3.1,5.5,8.9,8.7,14.9,8.7c1.5,0,2.9-0.2,4.4-0.6c7.5-2,12.8-8.8,12.8-16.6c0-3.4,0-7,0-10.7c0.2-46.6,0.6-117-31.8-176.9
				c-37.2-68.9-108.2-106-211.1-110.6v-88.8c0-6.6-3.8-12.7-9.8-15.5s-13.1-1.9-18.2,2.3L6.2,214.073c-3.9,3.3-6.2,8.1-6.2,13.2
				S2.2,237.273,6.2,240.573z M213.1,87.973v69.2c0,9.4,7.6,17.1,17,17.2c191,1.8,220.8,113.3,225.2,204.6
				c-67.7-92.7-132.4-98-225-98l0,0c-4.5,0-8.9,1.8-12.1,5c-3.2,3.2-5,7.6-5,12.1v69.2l-169-139.9L213.1,87.973z"/>
		</g>
	</g>
	<g>
	</g>
	<g>
	</g>
	<g>
	</g>
	<g>
	</g>
	<g>
	</g>
	<g>
	</g>
	<g>
	</g>
	<g>
	</g>
	<g>
	</g>
	<g>
	</g>
	<g>
	</g>
	<g>
	</g>
	<g>
	</g>
	<g>
	</g>
	<g>
	</g>
</g>
<g>
</g>
<g>
</g>
<g>
</g>
<g>
</g>
<g>
</g>
<g>
</g>
<g>
</g>
<g>
</g>
<g>
</g>
<g>
</g>
<g>
</g>
<g>
</g>
<g>
</g>
<g>
</g>
<g>
</g>
</svg>
