<?xml version="1.0" encoding="utf-8"?>
<!-- Generator: Adobe Illustrator 21.0.1, SVG Export Plug-In . SVG Version: 6.00 Build 0)  -->
<svg version="1.1" id="Layer_1" xmlns="http://www.w3.org/2000/svg" xmlns:xlink="http://www.w3.org/1999/xlink" x="0px" y="0px"
	 viewBox="0 0 80 80" style="enable-background:new 0 0 80 80;" xml:space="preserve">
<style type="text/css">
	.st0{fill:#39314C;}
	.st1{fill:#FFFFFF;}
	.st2{fill:none;stroke:#48E584;stroke-width:2;stroke-linejoin:round;stroke-miterlimit:10;}
	.st3{fill:none;stroke:#39314C;stroke-width:2;stroke-linejoin:round;stroke-miterlimit:10;}
	.st4{fill:#48E584;}
	.st5{fill:none;stroke:#39314C;stroke-width:2;stroke-miterlimit:10;}
	.st6{fill:none;stroke:#48E584;stroke-width:2;stroke-linecap:round;stroke-miterlimit:10;}
	.st7{fill:none;stroke:#39314C;stroke-width:2;stroke-linecap:round;stroke-miterlimit:10;}
	.st8{clip-path:url(#SVGID_2_);}
	.st9{clip-path:url(#SVGID_4_);fill:#39314C;}
	.st10{clip-path:url(#SVGID_6_);}
	.st11{clip-path:url(#SVGID_8_);fill:#39314C;}
	.st12{fill:none;stroke:#39314C;stroke-width:1.9425;stroke-miterlimit:10;}
	.st13{fill-rule:evenodd;clip-rule:evenodd;fill:#39314C;}
	.st14{fill-rule:evenodd;clip-rule:evenodd;fill:none;stroke:#39314C;stroke-width:2;stroke-miterlimit:10;}
	.st15{fill-rule:evenodd;clip-rule:evenodd;fill:#39314C;stroke:#39314C;stroke-width:1.6222;stroke-miterlimit:10;}
	.st16{clip-path:url(#SVGID_10_);}
	.st17{clip-path:url(#SVGID_12_);}
	.st18{fill:#FFFFFF;stroke:#39314C;stroke-width:2;stroke-linejoin:round;stroke-miterlimit:10;}
	.st19{clip-path:url(#SVGID_14_);}
	.st20{clip-path:url(#SVGID_16_);fill:#48E584;}
	.st21{fill:#39314C;stroke:#39314C;stroke-width:2;stroke-miterlimit:10;}
	.st22{fill:#48E584;stroke:#48E584;stroke-linecap:round;stroke-miterlimit:10;}
	.st23{fill:#39314C;stroke:#39314C;stroke-miterlimit:10;}
	.st24{fill:#48E584;stroke:#48E584;stroke-width:2;stroke-linecap:round;stroke-miterlimit:10;}
	.st25{fill:#FFFFFF;stroke:#48E584;stroke-width:2;stroke-linecap:round;stroke-linejoin:round;stroke-miterlimit:10;}
	.st26{fill:#FFFFFF;stroke:#39314C;stroke-width:2;stroke-miterlimit:10;}
	.st27{fill:#FFFFFF;stroke:#39314C;stroke-width:2;stroke-linecap:round;stroke-miterlimit:10;}
	.st28{fill:#48E584;stroke:#39314C;stroke-width:2;stroke-miterlimit:10;}
	.st29{fill:none;stroke:#39314C;stroke-width:3;stroke-miterlimit:10;}
	.st30{fill:none;stroke:#39314C;stroke-width:3;stroke-linejoin:round;stroke-miterlimit:10;}
</style>
<g>
	<defs>
		<path id="SVGID_1_" d="M183.7-359.4c-0.9,0-1.5,0.7-1.5,1.5v20.5c0,0.9,0.7,1.5,1.5,1.5s1.5-0.7,1.5-1.5v-20.5
			C185.2-358.7,184.5-359.4,183.7-359.4z"/>
	</defs>
	<clipPath id="SVGID_2_">
		<use xlink:href="#SVGID_1_"  style="overflow:visible;"/>
	</clipPath>
	<g class="st8">
		<defs>
			<rect id="SVGID_3_" x="-538.2" y="-1099" width="1366" height="1696"/>
		</defs>
		<clipPath id="SVGID_4_">
			<use xlink:href="#SVGID_3_"  style="overflow:visible;"/>
		</clipPath>
	</g>
</g>
<g>
	<defs>
		<path id="SVGID_5_" d="M183.7-333.1c-0.9,0-1.5,0.7-1.5,1.5v8.2c0,0.9,0.7,1.5,1.5,1.5s1.5-0.7,1.5-1.5v-8.2
			C185.2-332.4,184.5-333.1,183.7-333.1z"/>
	</defs>
	<clipPath id="SVGID_6_">
		<use xlink:href="#SVGID_5_"  style="overflow:visible;"/>
	</clipPath>
	<g class="st10">
		<defs>
			<rect id="SVGID_7_" x="-538.2" y="-1099" width="1366" height="1696"/>
		</defs>
		<clipPath id="SVGID_8_">
			<use xlink:href="#SVGID_7_"  style="overflow:visible;"/>
		</clipPath>
	</g>
</g>
<g>
	<defs>
		<path id="SVGID_9_" d="M534.1-139.6c-1.6,0-3-1.3-3-3c0-1.6,1.3-3,3-3s3,1.3,3,3C537-140.9,535.7-139.6,534.1-139.6z M534.5-129.8
			h10.2c0.7,0,1.3-0.6,1.3-1.3c0-0.7-0.6-1.3-1.3-1.3h-10.2c-4.9,0-8.9-4-8.9-8.9v-0.4c0-4.9,4-8.9,8.9-8.9s8.9,4,8.9,8.9v0.9
			c0,1.1-0.9,1.9-1.9,1.9s-1.9-0.9-1.9-1.9v-1.8c0-3.1-2.5-5.5-5.5-5.5s-5.5,2.5-5.5,5.5c0,3.1,2.5,5.5,5.5,5.5
			c1.4,0,2.7-0.5,3.6-1.4c0.8,1.3,2.2,2.1,3.8,2.1c2.5,0,4.5-2,4.5-4.5v-0.9c0-6.3-5.2-11.5-11.5-11.5c-6.3,0-11.5,5.2-11.5,11.5
			v0.4C523-135,528.2-129.8,534.5-129.8z"/>
	</defs>
	<clipPath id="SVGID_10_">
		<use xlink:href="#SVGID_9_"  style="overflow:visible;"/>
	</clipPath>
	<g class="st16">
		<defs>
			<rect id="SVGID_11_" x="0.8" y="-914.3" width="1058.3" height="1313.9"/>
		</defs>
		<clipPath id="SVGID_12_">
			<use xlink:href="#SVGID_11_"  style="overflow:visible;"/>
		</clipPath>
	</g>
</g>
<g>
	<g>
		<defs>
			<path id="SVGID_13_" d="M533.9-239.8c-1.6,0-3-1.3-3-3c0-1.6,1.3-3,3-3s3,1.3,3,3C536.9-241.2,535.5-239.8,533.9-239.8z
				 M534.4-230.1h10.2c0.7,0,1.3-0.6,1.3-1.3c0-0.7-0.6-1.3-1.3-1.3h-10.2c-4.9,0-8.9-4-8.9-8.9v-0.4c0-4.9,4-8.9,8.9-8.9
				s8.9,4,8.9,8.9v0.9c0,1.1-0.9,1.9-1.9,1.9s-1.9-0.9-1.9-1.9v-1.8c0-3.1-2.5-5.5-5.5-5.5s-5.5,2.5-5.5,5.5c0,3.1,2.5,5.5,5.5,5.5
				c1.4,0,2.7-0.5,3.6-1.4c0.8,1.3,2.2,2.1,3.8,2.1c2.5,0,4.5-2,4.5-4.5v-0.9c0-6.3-5.2-11.5-11.5-11.5s-11.5,5.2-11.5,11.5v0.4
				C522.9-235.2,528-230.1,534.4-230.1z"/>
		</defs>
		<clipPath id="SVGID_14_">
			<use xlink:href="#SVGID_13_"  style="overflow:visible;"/>
		</clipPath>
		<g class="st19">
			<defs>
				<rect id="SVGID_15_" x="0.6" y="-1014.6" width="1058.3" height="1313.9"/>
			</defs>
			<clipPath id="SVGID_16_">
				<use xlink:href="#SVGID_15_"  style="overflow:visible;"/>
			</clipPath>
		</g>
	</g>
</g>
<path class="st0" d="M66.2,21.1c-0.5-0.8-1.1-1.5-1.7-2.3C58,10.4,47.8,5,36.3,5l0,0C24.8,5,14.6,10.4,8.1,18.8
	c-0.6,0.7-1.1,1.5-1.7,2.3c-3.8,5.7-6,12.5-6,19.8l0,0c0,7.3,2.2,14.1,6,19.8c0.5,0.8,1.1,1.5,1.7,2.3c6.6,8.4,16.8,13.8,28.2,13.8
	v-0.1l0,0v0.1c11.5,0,21.7-5.4,28.2-13.7c0.6-0.7,1.1-1.5,1.7-2.3c3.8-5.7,6-12.5,6-19.9v0C72.2,33.6,70,26.8,66.2,21.1z M27.8,9.2
	c-3.3,3.4-5.9,8.7-7.6,15.1c-3.7-0.9-7-2.2-9.7-3.8C14.9,15,20.9,11,27.8,9.2z M8.9,22.8c3,1.8,6.6,3.3,10.7,4.3
	c-0.8,3.8-1.2,8-1.2,12.3H3.5C3.8,33.3,5.7,27.6,8.9,22.8z M3.5,42.3h14.9l0,0l0,0c0,0,0,0,0,0v0.1h0c0,4.3,0.4,8.4,1.2,12.2
	c-4.1,1.1-7.7,2.5-10.7,4.3C5.7,54.2,3.7,48.5,3.5,42.3z M10.6,61.4c2.7-1.5,5.9-2.8,9.7-3.8c1.7,6.5,4.4,11.8,7.7,15.1
	C21,70.9,14.9,66.8,10.6,61.4z M34.8,73.5C29.7,72.5,25.4,66,23.1,57c3.6-0.7,7.6-1.1,11.7-1.1V73.5z M34.8,52.9
	c-4.4,0-8.5,0.4-12.3,1.2c-0.7-3.6-1.1-7.6-1.1-11.8l0,0h13.4V52.9z M34.8,39.4H21.4c0-4.1,0.4-8,1.1-11.6c3.8,0.8,8,1.2,12.4,1.2
	V39.4z M34.8,26c-4.2,0-8.1-0.4-11.7-1.1c2.3-9.1,6.6-15.6,11.7-16.7V26z M69.2,39.4H54.3c0-4.3-0.4-8.5-1.2-12.3
	c4.1-1.1,7.7-2.5,10.7-4.3C66.9,27.6,68.9,33.3,69.2,39.4z M62.1,20.5c-2.6,1.5-5.9,2.8-9.6,3.8c-1.6-6.4-4.3-11.7-7.6-15.1
	C51.8,11,57.8,15,62.1,20.5z M37.7,8.2c5.2,1,9.5,7.5,11.8,16.7c-3.7,0.7-7.6,1.1-11.8,1.1C37.7,26,37.7,8.2,37.7,8.2z M37.7,29
	c4.4,0,8.6-0.4,12.5-1.2c0.7,3.6,1.1,7.5,1.1,11.7H37.7V29z M37.7,42.3h13.5l0,0c0,4.2-0.4,8.1-1.1,11.8c-3.9-0.8-8.1-1.2-12.4-1.2
	V42.3z M37.7,73.5V55.9c4.2,0,8.2,0.4,11.8,1.1C47.3,66.1,42.9,72.5,37.7,73.5z M44.7,72.7c3.3-3.4,6-8.7,7.7-15.1
	c3.7,0.9,7,2.2,9.7,3.8C57.7,66.9,51.7,70.9,44.7,72.7z M63.7,59.1c-3-1.8-6.6-3.3-10.7-4.3c0.8-3.8,1.2-7.9,1.2-12.3h0v-0.1
	c0,0,0,0,0,0l0,0l0,0h14.9C68.9,48.5,67,54.3,63.7,59.1z"/>
<g>
	<path class="st0" d="M61.5,69.3c-1.7,0-3.1-1.4-3.1-3.1V29h-6.7c-0.9,0-1.7-0.5-2-1.3c-0.3-0.8-0.2-1.8,0.5-2.4l12.1-13.7
		c0.7-0.7,1.5-1,2.4-1c0.9,0,1.7,0.3,2.4,1l12.3,13.8c0.6,0.6,0.8,1.5,0.4,2.3c-0.3,0.8-1.1,1.3-2,1.3h-6.7v37.2
		c0,1.7-1.4,3.1-3.1,3.1H61.5z"/>
	<path class="st1" d="M64.8,11.7c0.6,0,1.2,0.2,1.6,0.7l12.2,13.8c0.7,0.7,0.2,1.8-0.8,1.8h-7.8v38.2c0,1.1-0.9,2-2,2h-6.6
		c-1.1,0-2-0.9-2-2V28h-7.7c-1,0-1.5-1.2-0.8-1.9l12.2-13.7C63.6,11.9,64.2,11.7,64.8,11.7 M64.8,9.5c-1.2,0-2.3,0.5-3.1,1.3l0,0
		l0,0L49.4,24.6c-0.9,0.9-1.1,2.3-0.6,3.5c0.5,1.2,1.7,2,3,2h5.6v36.1c0,2.3,1.9,4.1,4.1,4.1h6.6c2.3,0,4.1-1.9,4.1-4.1V30.1h5.7
		c1.3,0,2.5-0.8,3-2c0.5-1.2,0.2-2.5-0.6-3.5L68,10.9l0,0l0,0C67.1,10,66,9.5,64.8,9.5L64.8,9.5z"/>
</g>
</svg>
