<?xml version="1.0" encoding="iso-8859-1"?>
<!-- Generator: Adobe Illustrator 19.0.0, SVG Export Plug-In . SVG Version: 6.00 Build 0)  -->
<svg version="1.1" id="Capa_1" xmlns="http://www.w3.org/2000/svg" xmlns:xlink="http://www.w3.org/1999/xlink" x="0px" y="0px"
	 viewBox="0 0 490.05 490.05" style="enable-background:new 0 0 490.05 490.05;" xml:space="preserve">
<g>
	<g>
		<g>
			<path d="M425.125,170.625c-4.5,0-8.9,1.8-12.1,5l-47.7,47.7c-6.7,6.7-6.7,17.6,0,24.3s17.6,6.7,24.3,0l18.5-18.5v177
				c0,9.7-7.9,17.7-17.7,17.7h-290.6c-9.7,0-17.7-7.9-17.7-17.7v-30.5c0-9.5-7.7-17.2-17.1-17.2c-9.5,0-17.2,7.7-17.2,17.2v30.5
				c0,28.7,23.3,52,52,52h290.5c28.7,0,52-23.3,52-52v-177l18.5,18.5c3.3,3.3,7.7,5,12.1,5s8.8-1.7,12.1-5c6.7-6.7,6.7-17.6,0-24.3
				l-47.7-47.7C434.025,172.425,429.625,170.625,425.125,170.625z"/>
			<path d="M52.825,314.525c3.2,3.2,7.6,5,12.1,5c4.6,0,8.9-1.8,12.1-5l47.7-47.7c6.7-6.7,6.7-17.6,0-24.3s-17.6-6.7-24.3,0
				l-18.3,18.5v-177.1c0-9.7,7.9-17.7,17.7-17.7h290.5c9.7,0,17.7,7.9,17.7,17.7v30.5c0,9.5,7.7,17.2,17.2,17.2s17.2-7.7,17.2-17.2
				v-30.5c0-28.7-23.3-52-52-52h-290.6c-28.7,0-52,23.3-52,52v177.1l-18.5-18.5c-6.7-6.7-17.6-6.7-24.3,0s-6.7,17.6,0,24.3
				L52.825,314.525z"/>
		</g>
	</g>
	<g>
	</g>
	<g>
	</g>
	<g>
	</g>
	<g>
	</g>
	<g>
	</g>
	<g>
	</g>
	<g>
	</g>
	<g>
	</g>
	<g>
	</g>
	<g>
	</g>
	<g>
	</g>
	<g>
	</g>
	<g>
	</g>
	<g>
	</g>
	<g>
	</g>
</g>
<g>
</g>
<g>
</g>
<g>
</g>
<g>
</g>
<g>
</g>
<g>
</g>
<g>
</g>
<g>
</g>
<g>
</g>
<g>
</g>
<g>
</g>
<g>
</g>
<g>
</g>
<g>
</g>
<g>
</g>
</svg>
