<?xml version="1.0" encoding="iso-8859-1"?>
<!-- Generator: Adobe Illustrator 19.0.0, SVG Export Plug-In . SVG Version: 6.00 Build 0)  -->
<svg version="1.1" id="Capa_1" xmlns="http://www.w3.org/2000/svg" xmlns:xlink="http://www.w3.org/1999/xlink" x="0px" y="0px"
	 viewBox="0 0 489.125 489.125" style="enable-background:new 0 0 489.125 489.125;" xml:space="preserve">
<g>
	<g>
		<g>
			<path d="M131.262,262.225h226.6c53.5,0,97-43.5,97-97s-43.5-97-97-97h-174.4l38.9-38.9c6.7-6.7,6.7-17.6,0-24.3s-17.6-6.7-24.3,0
				l-67.2,67.2c-3.2,3.2-5,7.6-5,12.1c0,4.6,1.8,8.9,5,12.1l67.9,67.9c3.3,3.3,7.7,5,12.1,5s8.8-1.7,12.1-5c6.7-6.7,6.7-17.6,0-24.3
				l-37.6-37.6h172.5c34.6,0,62.7,28.1,62.7,62.7s-28.1,62.7-62.7,62.7h-226.6c-53.5,0-97,43.5-97,97s43.5,97,97,97h148.5l-38,38
				c-6.7,6.7-6.7,17.6,0,24.3c3.3,3.3,7.7,5,12.1,5s8.8-1.7,12.1-5l67.9-67.9c3.2-3.2,5-7.6,5-12.1c0-4.6-1.8-8.9-5-12.1l-67.2-67.2
				c-6.7-6.7-17.6-6.7-24.3,0s-6.7,17.6,0,24.3l38.6,38.6h-149.7c-34.6,0-62.7-28.1-62.7-62.7S96.664,262.225,131.262,262.225z"/>
		</g>
	</g>
	<g>
	</g>
	<g>
	</g>
	<g>
	</g>
	<g>
	</g>
	<g>
	</g>
	<g>
	</g>
	<g>
	</g>
	<g>
	</g>
	<g>
	</g>
	<g>
	</g>
	<g>
	</g>
	<g>
	</g>
	<g>
	</g>
	<g>
	</g>
	<g>
	</g>
</g>
<g>
</g>
<g>
</g>
<g>
</g>
<g>
</g>
<g>
</g>
<g>
</g>
<g>
</g>
<g>
</g>
<g>
</g>
<g>
</g>
<g>
</g>
<g>
</g>
<g>
</g>
<g>
</g>
<g>
</g>
</svg>
