<?xml version="1.0" encoding="iso-8859-1"?>
<!-- Generator: Adobe Illustrator 19.0.0, SVG Export Plug-In . SVG Version: 6.00 Build 0)  -->
<svg version="1.1" id="Capa_1" xmlns="http://www.w3.org/2000/svg" xmlns:xlink="http://www.w3.org/1999/xlink" x="0px" y="0px"
	 viewBox="0 0 489.725 489.725" style="enable-background:new 0 0 489.725 489.725;" xml:space="preserve">
<g>
	<g>
		<g>
			<path d="M344.5,368.712l116,116c3.3,3.3,7.7,5,12.1,5s8.8-1.7,12.1-5c6.7-6.7,6.7-17.6,0-24.3l-116-116
				c31-36.5,49.7-83.7,49.7-135.2c0-115.4-93.9-209.2-209.2-209.2S0,93.813,0,209.214s93.9,209.2,209.3,209.2
				C260.8,418.413,308,399.712,344.5,368.712z M34.3,209.214c0-96.5,78.5-174.9,174.9-174.9s174.9,78.5,174.9,174.9
				s-78.5,174.9-174.9,174.9S34.3,305.612,34.3,209.214z"/>
		</g>
	</g>
	<g>
	</g>
	<g>
	</g>
	<g>
	</g>
	<g>
	</g>
	<g>
	</g>
	<g>
	</g>
	<g>
	</g>
	<g>
	</g>
	<g>
	</g>
	<g>
	</g>
	<g>
	</g>
	<g>
	</g>
	<g>
	</g>
	<g>
	</g>
	<g>
	</g>
</g>
<g>
</g>
<g>
</g>
<g>
</g>
<g>
</g>
<g>
</g>
<g>
</g>
<g>
</g>
<g>
</g>
<g>
</g>
<g>
</g>
<g>
</g>
<g>
</g>
<g>
</g>
<g>
</g>
<g>
</g>
</svg>
