<?xml version="1.0" encoding="iso-8859-1"?>
<!-- Generator: Adobe Illustrator 19.0.0, SVG Export Plug-In . SVG Version: 6.00 Build 0)  -->
<svg version="1.1" id="Capa_1" xmlns="http://www.w3.org/2000/svg" xmlns:xlink="http://www.w3.org/1999/xlink" x="0px" y="0px"
	 viewBox="0 0 489.8 489.8" style="enable-background:new 0 0 489.8 489.8;" xml:space="preserve">
<g>
	<g>
		<g>
			<path d="M343.45,71.8c-14.4-8.2-29.7-14.6-45.7-19V36.5c0-20.1-16.4-36.5-36.5-36.5h-32.5c-20.1,0-36.5,16.4-36.5,36.5v16.3
				c-16,4.4-31.3,10.7-45.7,19l-11.6-11.5c-6.9-6.9-16.1-10.7-25.8-10.7s-18.9,3.8-25.8,10.7l-23,23c-6.9,6.9-10.7,16.1-10.7,25.8
				s3.8,18.9,10.7,25.8l11.5,11.5c-8.2,14.4-14.6,29.7-19,45.7h-16.3c-20.1,0-36.5,16.4-36.5,36.5v32.5c0,20.1,16.4,36.5,36.5,36.5
				h16.3c4.4,16,10.7,31.3,19,45.7l-11.5,11.6c-14.2,14.2-14.2,37.4,0,51.6l23,23c6.9,6.9,16.1,10.7,25.8,10.7s18.9-3.8,25.8-10.7
				l11.5-11.5c14.4,8.2,29.7,14.6,45.7,19v16.3c0,20.1,16.4,36.5,36.5,36.5h32.5c20.1,0,36.5-16.4,36.5-36.5V437
				c16-4.4,31.3-10.7,45.7-19l11.5,11.5c6.9,6.9,16.1,10.7,25.8,10.7s18.9-3.8,25.8-10.7l23-23c14.2-14.2,14.2-37.4,0-51.6
				l-11.5-11.5c8.2-14.4,14.6-29.7,19-45.7h16.3c20.1,0,36.5-16.4,36.5-36.5v-32.5c0-20.1-16.4-36.5-36.5-36.5h-16.3
				c-4.4-16-10.7-31.3-19-45.7l11.5-11.5c14.2-14.2,14.2-37.4,0-51.6l-23-23c-6.9-6.9-16.1-10.7-25.8-10.7s-18.9,3.8-25.8,10.7
				L343.45,71.8z M379.25,84.5c0.9-0.9,2.2-0.9,3.1,0l23,23c0.9,0.9,0.9,2.2,0,3.1l-21.1,21.1c-5.8,5.8-6.7,14.9-2.1,21.7
				c12.1,18,20.3,38,24.5,59.2c1.6,8,8.6,13.8,16.8,13.8h29.9c1.2,0,2.2,1,2.2,2.2v32.5c0,1.2-1,2.2-2.2,2.2h-29.9
				c-8.2,0-15.2,5.8-16.8,13.8c-4.2,21.3-12.5,41.2-24.5,59.2c-4.6,6.8-3.7,15.9,2.1,21.7l21.1,21.1c0.9,0.9,0.9,2.2,0,3.1l-23,23
				c-0.8,0.9-2.2,0.8-3.1,0l-21.1-21.1c-5.8-5.8-14.9-6.7-21.7-2.1c-18.1,12.1-38,20.3-59.2,24.5c-8,1.6-13.8,8.6-13.8,16.8v29.9
				c0,1.2-1,2.2-2.2,2.2h-32.5c-1.2,0-2.2-1-2.2-2.2v-29.9c0-8.2-5.8-15.2-13.8-16.8c-21.2-4.2-41.2-12.5-59.2-24.5
				c-2.9-1.9-6.2-2.9-9.5-2.9c-4.4,0-8.8,1.7-12.1,5l-21.1,21.1c-0.9,0.9-2.2,0.9-3.1,0l-23-23c-0.9-0.9-0.9-2.2,0-3.1l21.1-21.1
				c5.8-5.8,6.7-14.9,2.1-21.7c-12.1-18.1-20.3-38-24.5-59.2c-1.6-8-8.6-13.8-16.8-13.8h-30.1c-1.2,0-2.2-1-2.2-2.2v-32.5
				c0-1.2,1-2.2,2.2-2.2h29.9c8.2,0,15.2-5.8,16.8-13.8c4.2-21.2,12.5-41.2,24.5-59.2c4.5-6.8,3.7-15.9-2.1-21.7l-21.1-21.1
				c-0.4-0.4-0.6-0.9-0.6-1.6c0-0.6,0.2-1.1,0.6-1.5l23-23c0.9-0.9,2.2-0.9,3.1,0l21.1,21.1c5.8,5.8,14.9,6.7,21.7,2.1
				c18.1-12.1,38-20.3,59.2-24.5c8-1.6,13.8-8.6,13.8-16.8V36.5c0-1.2,1-2.2,2.2-2.2h32.5c1.2,0,2.2,1,2.2,2.2v29.9
				c0,8.2,5.8,15.2,13.8,16.8c21.2,4.2,41.2,12.5,59.2,24.5c6.8,4.5,15.9,3.7,21.7-2.1L379.25,84.5z"/>
			<path d="M244.95,145.3c-54.9,0-99.6,44.7-99.6,99.6s44.7,99.6,99.6,99.6s99.6-44.7,99.6-99.6S299.85,145.3,244.95,145.3z
				 M244.95,310.2c-36,0-65.3-29.3-65.3-65.3s29.3-65.3,65.3-65.3s65.3,29.3,65.3,65.3S280.95,310.2,244.95,310.2z"/>
		</g>
	</g>
	<g>
	</g>
	<g>
	</g>
	<g>
	</g>
	<g>
	</g>
	<g>
	</g>
	<g>
	</g>
	<g>
	</g>
	<g>
	</g>
	<g>
	</g>
	<g>
	</g>
	<g>
	</g>
	<g>
	</g>
	<g>
	</g>
	<g>
	</g>
	<g>
	</g>
</g>
<g>
</g>
<g>
</g>
<g>
</g>
<g>
</g>
<g>
</g>
<g>
</g>
<g>
</g>
<g>
</g>
<g>
</g>
<g>
</g>
<g>
</g>
<g>
</g>
<g>
</g>
<g>
</g>
<g>
</g>
</svg>
