<?xml version="1.0" encoding="iso-8859-1"?>
<!-- Generator: Adobe Illustrator 19.0.0, SVG Export Plug-In . SVG Version: 6.00 Build 0)  -->
<svg version="1.1" id="Capa_1" xmlns="http://www.w3.org/2000/svg" xmlns:xlink="http://www.w3.org/1999/xlink" x="0px" y="0px"
	 viewBox="0 0 489.9 489.9" style="enable-background:new 0 0 489.9 489.9;" xml:space="preserve">
<g>
	<g>
		<g>
			<path d="M414.25,109.4c-0.8-8.8-8.2-15.6-17.1-15.6h-53.1c-2.8-52.2-46.1-93.8-99-93.8s-96.2,41.6-99,93.8h-53.1
				c-8.9,0-16.3,6.8-17.1,15.6l-27.6,311c0,0.5-0.1,1-0.1,1.5c0,37.5,34.2,68,76.2,68h241.2c42,0,76.2-30.5,76.2-68
				c0-0.5,0-1-0.1-1.5L414.25,109.4z M245.05,34.3c34,0,61.9,26.2,64.6,59.5h-129.2C183.15,60.5,211.05,34.3,245.05,34.3z
				 M365.65,455.7h-241.2c-22.8,0-41.5-14.8-41.9-33.1l26.2-294.5h37.2v36.6c0,9.5,7.7,17.2,17.2,17.2s17.2-7.7,17.2-17.2v-36.6
				h129.7v36.6c0,9.5,7.7,17.2,17.1,17.2c9.5,0,17.2-7.7,17.2-17.2v-36.6h37.2l26.2,294.5C407.15,440.9,388.55,455.7,365.65,455.7z"
				/>
			<path d="M290.85,249.6l-66.6,66.6l-25-25c-6.7-6.7-17.6-6.7-24.3,0s-6.7,17.6,0,24.3l37.1,37.1c3.3,3.3,7.7,5,12.1,5
				c4.4,0,8.8-1.7,12.1-5l78.7-78.7c6.7-6.7,6.7-17.6,0-24.3C308.45,242.9,297.55,242.9,290.85,249.6z"/>
		</g>
	</g>
	<g>
	</g>
	<g>
	</g>
	<g>
	</g>
	<g>
	</g>
	<g>
	</g>
	<g>
	</g>
	<g>
	</g>
	<g>
	</g>
	<g>
	</g>
	<g>
	</g>
	<g>
	</g>
	<g>
	</g>
	<g>
	</g>
	<g>
	</g>
	<g>
	</g>
</g>
<g>
</g>
<g>
</g>
<g>
</g>
<g>
</g>
<g>
</g>
<g>
</g>
<g>
</g>
<g>
</g>
<g>
</g>
<g>
</g>
<g>
</g>
<g>
</g>
<g>
</g>
<g>
</g>
<g>
</g>
</svg>
