<?xml version="1.0" encoding="iso-8859-1"?>
<!-- Generator: Adobe Illustrator 19.0.0, SVG Export Plug-In . SVG Version: 6.00 Build 0)  -->
<svg version="1.1" id="Capa_1" xmlns="http://www.w3.org/2000/svg" xmlns:xlink="http://www.w3.org/1999/xlink" x="0px" y="0px"
	 viewBox="0 0 490 490" style="enable-background:new 0 0 490 490;" xml:space="preserve">
<g>
	<g>
		<g>
			<path d="M245,0C109.9,0,0,109.9,0,245s109.9,245,245,245s245-109.9,245-245S380.1,0,245,0z M412.4,117.1l-55,94.2l-102-176.8
				C319.3,37.6,375.8,69.4,412.4,117.1z M199.4,324.9l-46.6-80l46.1-79.8h92.3l46.4,80.3l-46.3,79.4h-91.9L199.4,324.9L199.4,324.9z
				 M216.7,36.2l54.6,94.7H68C100.7,80.3,154.4,44.6,216.7,36.2z M50,165.1h109.3L57.5,341.2c-14.9-28.9-23.3-61.6-23.3-96.2
				C34.3,216.7,39.9,189.8,50,165.1z M78.3,373.8l54.7-94.6l39.6,67.9c0.8,2.6,2.1,4.8,3.9,6.7l59.3,101.8
				C171.8,452.8,115.1,421.3,78.3,373.8z M274.4,453.7l-55.1-94.5h81.6c0,0,0,0,0.1,0c0,0,0,0,0.1,0h121
				C389.5,409.4,336.2,445,274.4,453.7z M440,324.9H330.9l102.1-175c14.5,28.6,22.7,60.9,22.7,95.1
				C455.7,273.3,450.1,300.2,440,324.9z"/>
		</g>
	</g>
	<g>
	</g>
	<g>
	</g>
	<g>
	</g>
	<g>
	</g>
	<g>
	</g>
	<g>
	</g>
	<g>
	</g>
	<g>
	</g>
	<g>
	</g>
	<g>
	</g>
	<g>
	</g>
	<g>
	</g>
	<g>
	</g>
	<g>
	</g>
	<g>
	</g>
</g>
<g>
</g>
<g>
</g>
<g>
</g>
<g>
</g>
<g>
</g>
<g>
</g>
<g>
</g>
<g>
</g>
<g>
</g>
<g>
</g>
<g>
</g>
<g>
</g>
<g>
</g>
<g>
</g>
<g>
</g>
</svg>
