<?xml version="1.0" encoding="iso-8859-1"?>
<!-- Generator: Adobe Illustrator 19.0.0, SVG Export Plug-In . SVG Version: 6.00 Build 0)  -->
<svg version="1.1" id="Capa_1" xmlns="http://www.w3.org/2000/svg" xmlns:xlink="http://www.w3.org/1999/xlink" x="0px" y="0px"
	 viewBox="0 0 490 490" style="enable-background:new 0 0 490 490;" xml:space="preserve">
<g>
	<g>
		<g>
			<path d="M211.783,296.9c3.3,3.3,7.7,5,12.1,5c4.4,0,8.8-1.7,12.1-5l79.6-79.6c6.7-6.7,6.7-17.6,0-24.3s-17.6-6.7-24.3,0
				l-67.5,67.5l-25.4-25.4c-6.7-6.7-17.6-6.7-24.3,0s-6.7,17.6,0,24.3L211.783,296.9z"/>
			<path d="M18.583,437.1c-10.2,5-15.9,16-14.2,27.2c1.7,11.3,10.4,20.1,21.7,21.8c6.3,1,13,1.5,19.9,1.5c17.8,0,51.3-3.5,84.7-25.8
				c35.1,18.5,74.3,28.2,114.3,28.2c65.4,0,127-25.5,173.3-71.8c46.2-46.2,71.7-107.7,71.7-173.2c0-65.4-25.5-127-71.8-173.3
				c-46.3-46.2-107.8-71.7-173.2-71.7s-127,25.5-173.3,71.8c-88.7,88.7-95.6,230.1-17.7,326.8
				C44.283,417.4,32.383,430.3,18.583,437.1z M95.983,96c39.8-39.8,92.7-61.7,149-61.7s109.2,21.9,149,61.7s61.7,92.7,61.7,149
				s-21.9,109.2-61.7,149s-92.7,61.7-149,61.7c-37.6,0-74.5-10-106.7-29c-2.7-1.6-5.7-2.4-8.7-2.4c-3.7,0-7.4,1.2-10.5,3.6
				c-23.1,18-47.1,23.5-63.4,24.9c13.6-12.2,25.1-29,34.3-50.1c2.7-6.1,1.6-13.2-2.9-18.2C13.383,301.4,17.283,174.6,95.983,96z"/>
		</g>
	</g>
	<g>
	</g>
	<g>
	</g>
	<g>
	</g>
	<g>
	</g>
	<g>
	</g>
	<g>
	</g>
	<g>
	</g>
	<g>
	</g>
	<g>
	</g>
	<g>
	</g>
	<g>
	</g>
	<g>
	</g>
	<g>
	</g>
	<g>
	</g>
	<g>
	</g>
</g>
<g>
</g>
<g>
</g>
<g>
</g>
<g>
</g>
<g>
</g>
<g>
</g>
<g>
</g>
<g>
</g>
<g>
</g>
<g>
</g>
<g>
</g>
<g>
</g>
<g>
</g>
<g>
</g>
<g>
</g>
</svg>
