<?xml version="1.0" encoding="iso-8859-1"?>
<!-- Generator: Adobe Illustrator 19.0.0, SVG Export Plug-In . SVG Version: 6.00 Build 0)  -->
<svg version="1.1" id="Capa_1" xmlns="http://www.w3.org/2000/svg" xmlns:xlink="http://www.w3.org/1999/xlink" x="0px" y="0px"
	 viewBox="0 0 490 490" style="enable-background:new 0 0 490 490;" xml:space="preserve">
<g>
	<g>
		<g>
			<path d="M18.607,437.1c-10.2,5-15.9,16-14.2,27.2c1.7,11.3,10.4,20.1,21.7,21.8c6.3,1,13,1.5,19.9,1.5c17.8,0,51.3-3.5,84.7-25.8
				c35.1,18.5,74.4,28.2,114.3,28.2c65.5,0,127-25.5,173.3-71.8c95.5-95.5,95.5-251,0-346.5c-46.3-46.2-107.8-71.7-173.3-71.7
				s-127,25.5-173.2,71.7c-88.8,88.8-95.7,230.2-17.7,326.9C44.307,417.4,32.407,430.3,18.607,437.1z M96.007,96
				c39.8-39.8,92.7-61.7,149-61.7s109.2,21.9,149,61.7c82.2,82.2,82.2,215.9,0,298c-39.8,39.8-92.7,61.7-149,61.7
				c-37.6,0-74.5-10-106.7-29c-2.7-1.6-5.7-2.4-8.7-2.4c-3.7,0-7.4,1.2-10.5,3.6c-23.1,18-47.1,23.5-63.4,24.9
				c13.6-12.2,25.1-29,34.3-50.1c2.7-6.1,1.6-13.2-2.9-18.2C13.507,301.4,17.407,174.6,96.007,96z"/>
			<circle cx="245.007" cy="245" r="17.2"/>
			<circle cx="306.307" cy="245" r="17.2"/>
			<circle cx="183.807" cy="245" r="17.2"/>
		</g>
	</g>
	<g>
	</g>
	<g>
	</g>
	<g>
	</g>
	<g>
	</g>
	<g>
	</g>
	<g>
	</g>
	<g>
	</g>
	<g>
	</g>
	<g>
	</g>
	<g>
	</g>
	<g>
	</g>
	<g>
	</g>
	<g>
	</g>
	<g>
	</g>
	<g>
	</g>
</g>
<g>
</g>
<g>
</g>
<g>
</g>
<g>
</g>
<g>
</g>
<g>
</g>
<g>
</g>
<g>
</g>
<g>
</g>
<g>
</g>
<g>
</g>
<g>
</g>
<g>
</g>
<g>
</g>
<g>
</g>
</svg>
