<?xml version="1.0" encoding="iso-8859-1"?>
<!-- Generator: Adobe Illustrator 19.0.0, SVG Export Plug-In . SVG Version: 6.00 Build 0)  -->
<svg version="1.1" id="Capa_1" xmlns="http://www.w3.org/2000/svg" xmlns:xlink="http://www.w3.org/1999/xlink" x="0px" y="0px"
	 viewBox="0 0 489.8 489.8" style="enable-background:new 0 0 489.8 489.8;" xml:space="preserve">
<g>
	<g>
		<g>
			<path d="M227.82,121.7v22.6h-1.9c-32.4,0-58.8,26.4-58.8,58.8s26.4,58.8,58.8,58.8h38c13.5,0,24.5,11,24.5,24.5
				s-11,24.5-24.5,24.5h-68.2c-9.5,0-17.1,7.7-17.1,17.2s7.7,17.2,17.1,17.2h32.1v23c0,9.5,7.7,17.2,17.2,17.2s17.1-7.7,17.1-17.2
				v-23h1.8c32.4,0,58.8-26.4,58.8-58.8s-26.4-58.8-58.8-58.8h-38c-13.5,0-24.5-11-24.5-24.5s11-24.5,24.5-24.5h67
				c9.5,0,17.2-7.7,17.2-17.1c0-9.5-7.7-17.2-17.2-17.2h-30.8v-22.6c0-9.5-7.7-17.2-17.1-17.2
				C235.42,104.6,227.82,112.3,227.82,121.7z"/>
			<path d="M71.72,71.7c-88.7,88.7-95.6,230-17.7,326.7c-9.7,18.8-21.6,31.7-35.4,38.5c-10.2,5-15.9,16-14.2,27.2
				c1.7,11.3,10.4,20.1,21.7,21.8c6.3,1,13,1.5,19.9,1.5c17.8,0,51.3-3.5,84.7-25.8c35,18.5,74.3,28.2,114.2,28.2
				c65.4,0,126.9-25.5,173.2-71.7c95.5-95.5,95.5-250.9,0-346.4C371.82,25.4,310.32,0,244.92,0S118.02,25.4,71.72,71.7z
				 M393.92,393.8c-39.8,39.8-92.7,61.7-148.9,61.7c-37.6,0-74.5-10-106.7-28.9c-2.7-1.6-5.7-2.4-8.7-2.4c-3.7,0-7.4,1.2-10.5,3.6
				c-23.1,18-47.1,23.4-63.3,24.8c13.6-12.2,25-29,34.3-50c2.7-6.1,1.6-13.2-2.9-18.2c-73.6-83.1-69.7-209.8,8.9-288.4
				c39.8-39.8,92.7-61.7,148.9-61.7c56.3,0,109.2,21.9,148.9,61.7C476.02,178.1,476.02,311.7,393.92,393.8z"/>
		</g>
	</g>
	<g>
	</g>
	<g>
	</g>
	<g>
	</g>
	<g>
	</g>
	<g>
	</g>
	<g>
	</g>
	<g>
	</g>
	<g>
	</g>
	<g>
	</g>
	<g>
	</g>
	<g>
	</g>
	<g>
	</g>
	<g>
	</g>
	<g>
	</g>
	<g>
	</g>
</g>
<g>
</g>
<g>
</g>
<g>
</g>
<g>
</g>
<g>
</g>
<g>
</g>
<g>
</g>
<g>
</g>
<g>
</g>
<g>
</g>
<g>
</g>
<g>
</g>
<g>
</g>
<g>
</g>
<g>
</g>
</svg>
