<?xml version="1.0" encoding="iso-8859-1"?>
<!-- Generator: Adobe Illustrator 19.0.0, SVG Export Plug-In . SVG Version: 6.00 Build 0)  -->
<svg version="1.1" id="Capa_1" xmlns="http://www.w3.org/2000/svg" xmlns:xlink="http://www.w3.org/1999/xlink" x="0px" y="0px"
	 viewBox="0 0 489.7 489.7" style="enable-background:new 0 0 489.7 489.7;" xml:space="preserve">
<g>
	<g>
		<g>
			<path d="M18.683,436.7c-10.2,5-15.9,16-14.2,27.2c1.7,11.3,10.4,20,21.7,21.8c6.3,1,13,1.5,19.9,1.5c17.8,0,51.2-3.5,84.7-25.7
				c35,18.5,74.3,28.2,114.1,28.2c65.4,0,126.9-25.5,173.1-71.7s71.7-107.7,71.7-173.1s-25.5-126.9-71.7-173.1
				c-46.3-46.4-107.7-71.8-173.1-71.8s-126.9,25.4-173.2,71.7c-88.7,88.7-95.6,230-17.7,326.6C44.283,417,32.383,429.9,18.683,436.7
				z M95.983,95.9c39.8-39.8,92.6-61.7,148.9-61.7s109.1,21.9,148.9,61.7s61.7,92.6,61.7,148.9c0,56.2-21.9,109.1-61.7,148.9
				s-92.6,61.7-148.9,61.7c-37.6,0-74.4-10-106.6-28.9c-2.7-1.6-5.7-2.4-8.7-2.4c-3.7,0-7.4,1.2-10.5,3.6
				c-23.1,17.9-47,23.4-63.3,24.8c13.6-12.2,25-29,34.2-50c2.7-6.1,1.6-13.2-2.9-18.2C13.483,301.2,17.383,174.5,95.983,95.9z"/>
			<path d="M143.483,261.9h202.8c9.5,0,17.2-7.7,17.2-17.1s-7.7-17.2-17.2-17.2h-202.8c-9.5,0-17.2,7.7-17.2,17.2
				S133.983,261.9,143.483,261.9z"/>
			<path d="M143.483,192.5h202.8c9.5,0,17.2-7.7,17.2-17.2s-7.7-17.2-17.2-17.2h-202.8c-9.5,0-17.2,7.7-17.2,17.2
				S133.983,192.5,143.483,192.5z"/>
			<path d="M143.483,331.4h202.8c9.5,0,17.2-7.7,17.2-17.1c0-9.5-7.7-17.2-17.2-17.2h-202.8c-9.5,0-17.2,7.7-17.2,17.2
				C126.283,323.7,133.983,331.4,143.483,331.4z"/>
		</g>
	</g>
	<g>
	</g>
	<g>
	</g>
	<g>
	</g>
	<g>
	</g>
	<g>
	</g>
	<g>
	</g>
	<g>
	</g>
	<g>
	</g>
	<g>
	</g>
	<g>
	</g>
	<g>
	</g>
	<g>
	</g>
	<g>
	</g>
	<g>
	</g>
	<g>
	</g>
</g>
<g>
</g>
<g>
</g>
<g>
</g>
<g>
</g>
<g>
</g>
<g>
</g>
<g>
</g>
<g>
</g>
<g>
</g>
<g>
</g>
<g>
</g>
<g>
</g>
<g>
</g>
<g>
</g>
<g>
</g>
</svg>
