<?xml version="1.0" encoding="iso-8859-1"?>
<!-- Generator: Adobe Illustrator 19.0.0, SVG Export Plug-In . SVG Version: 6.00 Build 0)  -->
<svg version="1.1" id="Capa_1" xmlns="http://www.w3.org/2000/svg" xmlns:xlink="http://www.w3.org/1999/xlink" x="0px" y="0px"
	 viewBox="0 0 490 490" style="enable-background:new 0 0 490 490;" xml:space="preserve">
<g>
	<g>
		<g>
			<path d="M262.2,472.9V141.6l58.8,58.8c3.3,3.3,7.7,5,12.1,5c4.4,0,8.8-1.7,12.1-5c6.7-6.7,6.7-17.6,0-24.3L257.1,88
				c-6.4-6.4-17.8-6.4-24.3,0l-88.1,88.1c-6.7,6.7-6.7,17.6,0,24.3s17.6,6.7,24.3,0l58.8-58.8v331.2c0,9.5,7.7,17.2,17.1,17.2
				C254.6,490,262.2,482.4,262.2,472.9z"/>
			<path d="M28,17.1v99.7c0,9.5,7.7,17.2,17.1,17.2c9.5,0,17.2-7.7,17.2-17.2V34.3h365.5v82.6c0,9.5,7.7,17.2,17.1,17.2
				c9.4,0,17.1-7.7,17.1-17.2V17.1C462,7.6,454.3,0,444.9,0H45.2C35.7,0,28,7.6,28,17.1z"/>
		</g>
	</g>
	<g>
	</g>
	<g>
	</g>
	<g>
	</g>
	<g>
	</g>
	<g>
	</g>
	<g>
	</g>
	<g>
	</g>
	<g>
	</g>
	<g>
	</g>
	<g>
	</g>
	<g>
	</g>
	<g>
	</g>
	<g>
	</g>
	<g>
	</g>
	<g>
	</g>
</g>
<g>
</g>
<g>
</g>
<g>
</g>
<g>
</g>
<g>
</g>
<g>
</g>
<g>
</g>
<g>
</g>
<g>
</g>
<g>
</g>
<g>
</g>
<g>
</g>
<g>
</g>
<g>
</g>
<g>
</g>
</svg>
