<?xml version="1.0" encoding="iso-8859-1"?>
<!-- Generator: Adobe Illustrator 19.0.0, SVG Export Plug-In . SVG Version: 6.00 Build 0)  -->
<svg version="1.1" id="Capa_1" xmlns="http://www.w3.org/2000/svg" xmlns:xlink="http://www.w3.org/1999/xlink" x="0px" y="0px"
	 viewBox="0 0 489.8 489.8" style="enable-background:new 0 0 489.8 489.8;" xml:space="preserve">
<g>
	<g>
		<g>
			<path d="M244.9,489.8c9.5,0,17.2-7.7,17.2-17.1V160.4l77.6,77.6c3.3,3.3,7.7,5,12.1,5s8.8-1.7,12.1-5c6.7-6.7,6.7-17.6,0-24.3
				L257,106.8c-6.7-6.7-17.6-6.7-24.3,0L125.9,213.7c-6.7,6.7-6.7,17.6,0,24.3c6.7,6.7,17.6,6.7,24.3,0l77.6-77.6v312.3
				C227.8,482.1,235.4,489.8,244.9,489.8z"/>
			<path d="M455.8,17.2c0-9.5-7.7-17.2-17.1-17.2H51.1C41.6,0,34,7.7,34,17.2s7.7,17.2,17.1,17.2h387.6
				C448.2,34.3,455.8,26.6,455.8,17.2z"/>
		</g>
	</g>
	<g>
	</g>
	<g>
	</g>
	<g>
	</g>
	<g>
	</g>
	<g>
	</g>
	<g>
	</g>
	<g>
	</g>
	<g>
	</g>
	<g>
	</g>
	<g>
	</g>
	<g>
	</g>
	<g>
	</g>
	<g>
	</g>
	<g>
	</g>
	<g>
	</g>
</g>
<g>
</g>
<g>
</g>
<g>
</g>
<g>
</g>
<g>
</g>
<g>
</g>
<g>
</g>
<g>
</g>
<g>
</g>
<g>
</g>
<g>
</g>
<g>
</g>
<g>
</g>
<g>
</g>
<g>
</g>
</svg>
