<?xml version="1.0" encoding="iso-8859-1"?>
<!-- Generator: Adobe Illustrator 19.0.0, SVG Export Plug-In . SVG Version: 6.00 Build 0)  -->
<svg version="1.1" id="Capa_1" xmlns="http://www.w3.org/2000/svg" xmlns:xlink="http://www.w3.org/1999/xlink" x="0px" y="0px"
	 viewBox="0 0 489.428 489.428" style="enable-background:new 0 0 489.428 489.428;" xml:space="preserve">
<g>
	<g>
		<g>
			<path d="M244.674,318.414c12.5-0.2,24.2-1.9,34.9-5.1c11.3,22.7,45.3,57,145.5,82.2c29.4,7.5,31.2,44.5,29.7,65.9
				c-0.7,9.4,6.5,17.6,15.9,18.3c0.4,0,0.8,0,1.2,0c8.9,0,16.5-6.9,17.1-15.9c3.8-54.6-16.4-91.6-55.6-101.6
				c-91.5-23-116.2-51.5-122.8-64c6.4-4.6,12.4-9.9,17.8-16.1c45.6-51.4,38.2-139.2,37.3-147.9c-5.3-114-94.6-124.1-121.9-124.5
				h-0.7c-0.2,0-0.4,0-0.7,0h-0.6c-56.3,0.6-117.8,33.7-122.2,124.5c-0.9,8.7-8.3,96.5,37.3,147.9c6.2,7,13.2,13.1,20.7,18.1
				c-8.1,13-34.9,40.3-121.6,62c-39.1,9.9-59.4,47-55.5,101.5c0.6,9,8.2,15.9,17.1,15.9c0.4,0,0.8,0,1.2,0
				c9.4-0.7,16.6-8.9,15.9-18.3c-1.5-21.4,0.4-58.4,29.7-65.9c97.4-24.4,132.5-57.7,144.8-81.2c9.8,2.6,20.3,4,31.5,4.2H244.674z
				 M242.174,284.114c-25.5-0.3-45-8.4-59.6-24.7c-36.9-41.5-28.9-121.3-28.9-122.1c0-0.4,0.1-0.7,0.1-1.1
				c3.6-79.4,56.9-91.9,88.4-92.2h0.5h0.6c31.4,0.4,84.7,13,88.3,92.2c0,0.3,0,0.7,0.1,1c0.1,0.8,8.1,80.6-28.9,122.1
				c-14.6,16.4-34,24.4-59.6,24.7h-1L242.174,284.114L242.174,284.114z"/>
		</g>
	</g>
	<g>
	</g>
	<g>
	</g>
	<g>
	</g>
	<g>
	</g>
	<g>
	</g>
	<g>
	</g>
	<g>
	</g>
	<g>
	</g>
	<g>
	</g>
	<g>
	</g>
	<g>
	</g>
	<g>
	</g>
	<g>
	</g>
	<g>
	</g>
	<g>
	</g>
</g>
<g>
</g>
<g>
</g>
<g>
</g>
<g>
</g>
<g>
</g>
<g>
</g>
<g>
</g>
<g>
</g>
<g>
</g>
<g>
</g>
<g>
</g>
<g>
</g>
<g>
</g>
<g>
</g>
<g>
</g>
</svg>
