<?xml version="1.0" encoding="iso-8859-1"?>
<!-- Generator: Adobe Illustrator 19.0.0, SVG Export Plug-In . SVG Version: 6.00 Build 0)  -->
<svg version="1.1" id="Capa_1" xmlns="http://www.w3.org/2000/svg" xmlns:xlink="http://www.w3.org/1999/xlink" x="0px" y="0px"
	 viewBox="0 0 489.701 489.701" style="enable-background:new 0 0 489.701 489.701;" xml:space="preserve">
<g>
	<g>
		<g>
			<path d="M483.842,116.748l-111-111c-6.7-6.7-17.9-7.6-25.7-2.1l-88.2,63.2c-4.9-0.4-9.8-0.6-14.7-0.6
				c-47.5,0-92.2,18.5-125.8,52.2c-37.3,37.2-55.9,88.2-51.6,140.5l-63.1,88.2c-5.7,8-4.8,18.8,2.1,25.7l111,111
				c3.8,3.8,8.8,5.8,14.1,5.8c4.2,0,8.2-1.3,11.6-3.7l88.4-63c4.7,0.4,9.5,0.6,14.2,0.6l0,0c47.7,0,92.5-18.6,126.2-52.3
				c37.2-37.2,55.9-88.1,51.7-140.4l63-88.4C491.642,134.448,490.742,123.648,483.842,116.748z M391.842,215.348
				c-2.8,4-4.1,8.9-3.5,13.7c4.9,43.8-10.2,86.8-41.3,117.9c-27.2,27.2-63.4,42.2-101.9,42.2l0,0c-5.3,0-10.7-0.3-16-0.9
				c-0.6-0.1-1.6-0.1-2.2-0.1c-4.1,0-8.1,1.3-11.5,3.7l-82.9,59.1l-93.7-93.7l59.2-82.7c2.9-4,4.1-8.9,3.6-13.8
				c-5-43.8,10-86.8,41.2-118c27.2-27.2,63.2-42.1,101.6-42.1c5.5,0,11,0.3,16.4,0.9c0.6,0.1,1.6,0.1,2.3,0.1
				c4.2,0,8.2-1.3,11.6-3.7l82.7-59.2l93.7,93.7L391.842,215.348z"/>
			<path d="M244.842,136.948c-30.5,0-59.7,13-80.1,35.6c-36.5,40.5-36.5,103.9,0,144.3c20.4,22.6,49.6,35.6,80.1,35.6
				s59.7-13,80.1-35.6c36.5-40.5,36.5-103.9,0-144.3C304.542,149.948,275.342,136.948,244.842,136.948z M299.542,293.948
				c-14.2,15.7-33.6,24.3-54.7,24.3s-40.5-8.6-54.7-24.3c-24.9-27.6-24.9-70.8,0-98.4c14.2-15.7,33.6-24.3,54.7-24.3
				s40.5,8.6,54.7,24.3C324.342,223.148,324.342,266.348,299.542,293.948z"/>
		</g>
	</g>
	<g>
	</g>
	<g>
	</g>
	<g>
	</g>
	<g>
	</g>
	<g>
	</g>
	<g>
	</g>
	<g>
	</g>
	<g>
	</g>
	<g>
	</g>
	<g>
	</g>
	<g>
	</g>
	<g>
	</g>
	<g>
	</g>
	<g>
	</g>
	<g>
	</g>
</g>
<g>
</g>
<g>
</g>
<g>
</g>
<g>
</g>
<g>
</g>
<g>
</g>
<g>
</g>
<g>
</g>
<g>
</g>
<g>
</g>
<g>
</g>
<g>
</g>
<g>
</g>
<g>
</g>
<g>
</g>
</svg>
